<svg width="37" height="36" viewBox="0 0 37 36" fill="none" xmlns="http://www.w3.org/2000/svg">
<ellipse opacity="0.15" cx="18.0539" cy="18" rx="18.0539" ry="18" fill="#4552CB"/>
<path d="M26.5714 11H9.42857C9.04969 11 8.68633 11.158 8.41842 11.4393C8.15051 11.7206 8 12.1022 8 12.5V24.5C8 24.8978 8.15051 25.2794 8.41842 25.5607C8.68633 25.842 9.04969 26 9.42857 26H26.5714C26.9503 26 27.3137 25.842 27.5816 25.5607C27.8495 25.2794 28 24.8978 28 24.5V12.5C28 12.1022 27.8495 11.7206 27.5816 11.4393C27.3137 11.158 26.9503 11 26.5714 11ZM25 12.5L18 17.585L11 12.5H25ZM9.42857 24.5V13.1825L17.5929 19.115C17.7124 19.2021 17.8545 19.2488 18 19.2488C18.1455 19.2488 18.2876 19.2021 18.4071 19.115L26.5714 13.1825V24.5H9.42857Z" fill="#4552CB"/>
</svg>
