<svg width="26" height="26" viewBox="0 0 26 26" fill="none" xmlns="http://www.w3.org/2000/svg">
<path d="M11 0C4.928 0 0 4.928 0 11C0 17.072 4.928 22 11 22C17.072 22 22 17.072 22 11C22 4.928 17.072 0 11 0ZM5.577 17.908C6.05 16.918 8.932 15.95 11 15.95C13.068 15.95 15.961 16.918 16.423 17.908C14.927 19.096 13.046 19.8 11 19.8C8.954 19.8 7.073 19.096 5.577 17.908ZM17.996 16.313C16.423 14.399 12.606 13.75 11 13.75C9.394 13.75 5.577 14.399 4.004 16.313C2.83542 14.7882 2.20144 12.9211 2.2 11C2.2 6.149 6.149 2.2 11 2.2C15.851 2.2 19.8 6.149 19.8 11C19.8 13.002 19.118 14.839 17.996 16.313V16.313ZM11 4.4C8.866 4.4 7.15 6.116 7.15 8.25C7.15 10.384 8.866 12.1 11 12.1C13.134 12.1 14.85 10.384 14.85 8.25C14.85 6.116 13.134 4.4 11 4.4ZM11 9.9C10.087 9.9 9.35 9.163 9.35 8.25C9.35 7.337 10.087 6.6 11 6.6C11.913 6.6 12.65 7.337 12.65 8.25C12.65 9.163 11.913 9.9 11 9.9Z" fill="#0D9C57"/>
</svg>
