<svg width="23" height="17" viewBox="0 0 23 17" fill="none" xmlns="http://www.w3.org/2000/svg">
<path d="M8.12786 0.776634L8.12808 0.776421C8.62666 0.277842 9.40912 0.277842 9.9077 0.776421C10.4063 1.275 10.4063 2.05748 9.9077 2.55606L9.90712 2.55664L5.16162 7.24999H20.8566C21.5445 7.24999 22.1066 7.81215 22.1066 8.49999C22.1066 9.18783 21.5445 9.74999 20.8566 9.74999H5.15737L9.88021 14.4989C9.88031 14.499 9.8804 14.4991 9.8805 14.4992C10.3788 14.9978 10.3787 15.7801 9.88021 16.2786C9.63297 16.5258 9.32017 16.6525 9.00414 16.6525C8.69578 16.6525 8.35073 16.5308 8.12459 16.2751L1.28058 9.40355C1.28052 9.4035 1.28047 9.40345 1.28042 9.40339L1.28037 9.40334L1.38664 9.29749C0.946644 8.85749 0.946644 8.16999 1.38664 7.75749L8.12786 0.776634ZM8.12786 0.776634L1.28212 7.64987L8.12786 0.776634Z" fill="black" stroke="black" stroke-width="0.3"/>
</svg>
