<svg width="23" height="19" viewBox="0 0 23 19" fill="none" xmlns="http://www.w3.org/2000/svg">
<path d="M5.64875 8.04999L10.0482 3.69884L10.0496 3.69748C10.6263 3.12079 10.6263 2.21168 10.0496 1.635C9.47293 1.05832 8.56383 1.05832 7.98714 1.635L7.98665 1.6355L1.14309 8.50654C0.555815 9.06197 0.569045 9.97416 1.13944 10.5448C1.13951 10.5448 1.13958 10.5449 1.13964 10.545L7.97937 17.4122C8.25016 17.7153 8.65181 17.8525 9.00463 17.8525C9.37536 17.8525 9.73857 17.7035 10.0221 17.42C10.5987 16.8434 10.5988 15.9346 10.0225 15.3579C10.0224 15.3577 10.0222 15.3576 10.0221 15.3575L5.63882 10.95H20.8571C21.6554 10.95 22.3071 10.2983 22.3071 9.49999C22.3071 8.70169 21.6554 8.04999 20.8571 8.04999H5.64875ZM9.80217 3.45004L9.80213 3.44999L9.80217 3.45004Z" fill="#333333" stroke="#333333" stroke-width="0.7"/>
</svg>
