<svg width="100" height="100" viewBox="0 0 100 100" fill="none" xmlns="http://www.w3.org/2000/svg">
<path d="M86.6657 80.3039C91.6947 74.2532 95.1924 67.0802 96.863 59.3918C98.5335 51.7035 98.3277 43.7258 96.263 36.1338C94.1983 28.5418 90.3354 21.5587 85.0012 15.7753C79.6669 9.99194 73.0182 5.57839 65.6174 2.90803C58.2167 0.237671 50.2816 -0.610935 42.4836 0.433998C34.6855 1.47893 27.2538 4.38666 20.8171 8.91121C14.3805 13.4358 9.12828 19.444 5.50478 26.4277C1.88129 33.4114 -0.00687258 41.1651 1.87964e-05 49.0329C0.00266325 60.4704 4.03318 71.5416 11.3843 80.3039L11.3143 80.3634C11.5594 80.6576 11.8396 80.9097 12.0917 81.2003C12.4069 81.561 12.7465 81.9007 13.0722 82.2509C14.0527 83.3154 15.0612 84.3379 16.1187 85.2974C16.4409 85.5916 16.7736 85.8647 17.0992 86.1448C18.2198 87.1113 19.3719 88.0288 20.566 88.8832C20.7201 88.9883 20.8602 89.1249 21.0142 89.2334V89.1914C29.2158 94.9629 38.9998 98.0604 49.0285 98.0604C59.0573 98.0604 68.8413 94.9629 77.0428 89.1914V89.2334C77.1969 89.1249 77.3335 88.9883 77.4911 88.8832C78.6817 88.0253 79.8373 87.1113 80.9578 86.1448C81.2835 85.8647 81.6162 85.5881 81.9383 85.2974C82.9959 84.3344 84.0044 83.3154 84.9849 82.2509C85.3106 81.9007 85.6467 81.561 85.9654 81.2003C86.214 80.9097 86.4977 80.6575 86.7428 80.3599L86.6657 80.3039ZM49.025 21.0186C52.1417 21.0186 55.1883 21.9428 57.7797 23.6743C60.3711 25.4058 62.3909 27.8669 63.5836 30.7463C64.7763 33.6257 65.0883 36.7941 64.4803 39.8509C63.8723 42.9077 62.3715 45.7155 60.1677 47.9193C57.9639 50.1231 55.156 51.6239 52.0993 52.2319C49.0425 52.8399 45.8741 52.5279 42.9947 51.3352C40.1153 50.1425 37.6542 48.1228 35.9227 45.5314C34.1912 42.94 33.267 39.8933 33.267 36.7767C33.267 32.5974 34.9272 28.5893 37.8824 25.634C40.8376 22.6788 44.8457 21.0186 49.025 21.0186V21.0186ZM21.0353 80.3039C21.096 75.7059 22.9646 71.3167 26.2367 68.0859C29.5088 64.8551 33.9213 63.0424 38.5197 63.0401H59.5304C64.1288 63.0424 68.5413 64.8551 71.8134 68.0859C75.0855 71.3167 76.9541 75.7059 77.0148 80.3039C69.3348 87.2246 59.3632 91.0546 49.025 91.0546C38.6869 91.0546 28.7152 87.2246 21.0353 80.3039V80.3039Z" fill="#9DA8C3"/>
</svg>
