<svg width="26" height="26" viewBox="0 0 26 26" fill="none" xmlns="http://www.w3.org/2000/svg">
<path d="M12.989 2.16675C7.009 2.16675 2.1665 7.02008 2.1665 13.0001C2.1665 18.9801 7.009 23.8334 12.989 23.8334C18.9798 23.8334 23.8332 18.9801 23.8332 13.0001C23.8332 7.02008 18.9798 2.16675 12.989 2.16675ZM12.9998 21.6667C8.2115 21.6667 4.33317 17.7884 4.33317 13.0001C4.33317 8.21175 8.2115 4.33341 12.9998 4.33341C17.7882 4.33341 21.6665 8.21175 21.6665 13.0001C21.6665 17.7884 17.7882 21.6667 12.9998 21.6667Z" fill="#D5D5D5"/>
<path d="M13.5415 7.58325H11.9165V14.0833L17.604 17.4958L18.4165 16.1633L13.5415 13.2708V7.58325Z" fill="#D5D5D5"/>
<path d="M24.9165 20.0417C24.9165 22.7341 22.7339 24.9167 20.0415 24.9167C17.3491 24.9167 15.1665 22.7341 15.1665 20.0417C17.3332 18.9584 18.4165 18.9584 20.0415 15.1667C22.7339 15.1667 24.9165 17.3494 24.9165 20.0417Z" fill="white"/>
<path d="M17.3335 20.5834L19.5002 22.7501L23.2918 18.4167" stroke="#D5D5D5" stroke-width="1.3" stroke-linecap="round"/>
</svg>
