<svg width="26" height="26" viewBox="0 0 26 26" fill="none" xmlns="http://www.w3.org/2000/svg">
<path d="M12.989 2.1665C7.009 2.1665 2.1665 7.01984 2.1665 12.9998C2.1665 18.9798 7.009 23.8332 12.989 23.8332C18.9798 23.8332 23.8332 18.9798 23.8332 12.9998C23.8332 7.01984 18.9798 2.1665 12.989 2.1665ZM12.9998 21.6665C8.2115 21.6665 4.33317 17.7882 4.33317 12.9998C4.33317 8.2115 8.2115 4.33317 12.9998 4.33317C17.7882 4.33317 21.6665 8.2115 21.6665 12.9998C21.6665 17.7882 17.7882 21.6665 12.9998 21.6665Z" fill="#0D9C57"/>
<path d="M13.5415 7.5835H11.9165V14.0835L17.604 17.496L18.4165 16.1635L13.5415 13.271V7.5835Z" fill="#0D9C57"/>
<path d="M24.9165 20.0415C24.9165 22.7339 22.7339 24.9165 20.0415 24.9165C17.3491 24.9165 15.1665 22.7339 15.1665 20.0415C17.3332 18.9582 18.4165 18.9582 20.0415 15.1665C22.7339 15.1665 24.9165 17.3491 24.9165 20.0415Z" fill="white"/>
<path d="M17.3335 20.5832L19.5002 22.7498L23.2918 18.4165" stroke="#0D9C57" stroke-width="1.3" stroke-linecap="round"/>
</svg>
