<svg width="22" height="22" viewBox="0 0 22 22" fill="none" xmlns="http://www.w3.org/2000/svg">
<circle cx="11" cy="11" r="11" fill="white"/>
<path d="M22 11C22 13.1756 21.3549 15.3023 20.1462 17.1113C18.9375 18.9202 17.2195 20.3301 15.2095 21.1627C13.1995 21.9952 10.9878 22.2131 8.85401 21.7886C6.72022 21.3642 4.76021 20.3165 3.22183 18.7782C1.68345 17.2398 0.635804 15.2798 0.211367 13.146C-0.213071 11.0122 0.00476609 8.80047 0.83733 6.79048C1.66989 4.78049 3.07979 3.06253 4.88873 1.85383C6.69767 0.645138 8.82441 0 11 0C13.9174 0 16.7153 1.15893 18.7782 3.22182C20.8411 5.28472 22 8.08262 22 11ZM16.2181 9.96875H12.0313V5.78187C12.0313 5.50837 11.9226 5.24607 11.7292 5.05267C11.5358 4.85927 11.2735 4.75062 11 4.75062C10.7265 4.75062 10.4642 4.85927 10.2708 5.05267C10.0774 5.24607 9.96875 5.50837 9.96875 5.78187V9.96875H5.78188C5.50837 9.96875 5.24607 10.0774 5.05267 10.2708C4.85928 10.4642 4.75063 10.7265 4.75063 11C4.75063 11.2735 4.85928 11.5358 5.05267 11.7292C5.24607 11.9226 5.50837 12.0312 5.78188 12.0312H9.96875V16.2181C9.96875 16.4916 10.0774 16.7539 10.2708 16.9473C10.4642 17.1407 10.7265 17.2494 11 17.2494C11.2735 17.2494 11.5358 17.1407 11.7292 16.9473C11.9226 16.7539 12.0313 16.4916 12.0313 16.2181V12.0312H16.2181C16.4916 12.0312 16.7539 11.9226 16.9473 11.7292C17.1407 11.5358 17.2494 11.2735 17.2494 11C17.2494 10.7265 17.1407 10.4642 16.9473 10.2708C16.7539 10.0774 16.4916 9.96875 16.2181 9.96875Z" fill="url(#paint0_linear_1307_3379)"/>
<defs>
<linearGradient id="paint0_linear_1307_3379" x1="2.23437" y1="27.8438" x2="-10.3948" y2="10.5949" gradientUnits="userSpaceOnUse">
<stop offset="0.298343" stop-color="#4552CB"/>
<stop offset="1" stop-color="#4596EA"/>
</linearGradient>
</defs>
</svg>
