<svg width="78" height="78" viewBox="0 0 78 78" fill="none" xmlns="http://www.w3.org/2000/svg">
<path d="M61.75 34.1248V64.9998C61.75 65.8617 61.4076 66.6884 60.7981 67.2979C60.1886 67.9074 59.362 68.2498 58.5 68.2498H13C12.138 68.2498 11.3114 67.9074 10.7019 67.2979C10.0924 66.6884 9.75 65.8617 9.75 64.9998V19.4998C9.75 18.6378 10.0924 17.8112 10.7019 17.2017C11.3114 16.5922 12.138 16.2498 13 16.2498H42.8415" stroke="white" stroke-width="4" stroke-miterlimit="10" stroke-linecap="round" stroke-linejoin="round"/>
<path d="M19.5 50.4235L29.25 37.3748L34.125 42.2498L39.8125 33.3123L52 50.4235H19.5Z" stroke="white" stroke-width="4" stroke-miterlimit="10" stroke-linecap="round" stroke-linejoin="round"/>
<path d="M55.25 16.2498H68.25" stroke="white" stroke-width="4" stroke-miterlimit="10" stroke-linecap="round" stroke-linejoin="round"/>
<path d="M61.7402 9.41675V22.4168" stroke="white" stroke-width="4" stroke-miterlimit="10" stroke-linecap="round" stroke-linejoin="round"/>
</svg>
