<svg width="37" height="36" viewBox="0 0 37 36" fill="none" xmlns="http://www.w3.org/2000/svg">
<path d="M21.0478 13.8998C21.6897 14.6198 21.9906 15.5998 21.8502 16.6398C21.6094 18.5598 20.2052 19.2398 18.9615 19.2398C18.9014 19.2398 18.8612 19.2398 18.8612 19.2398V19.7198C18.8612 20.1598 18.5002 20.5198 18.0588 20.5198C17.6175 20.5198 17.2564 20.1598 17.2564 19.7198V19.0798C17.2564 18.4198 17.5373 17.6398 18.9615 17.6398C19.7439 17.6398 20.1451 17.2398 20.2454 16.4398C20.2855 16.1798 20.3056 15.4798 19.8241 14.9598C19.443 14.5398 18.8211 14.3198 17.9786 14.3198C16.1732 14.3198 16.113 15.4998 16.113 15.6198C16.113 16.0598 15.752 16.4198 15.3106 16.4198C14.8693 16.4198 14.5083 16.0598 14.5083 15.6198C14.5083 14.8198 15.1301 12.7198 17.9786 12.7198C19.6436 12.7198 20.5663 13.3598 21.0478 13.8998ZM17.9987 21.1998C17.7379 21.1998 17.4771 21.2998 17.2966 21.4998C17.116 21.6798 16.9957 21.9398 16.9957 22.1998C16.9957 22.4598 17.096 22.7198 17.2966 22.8998C17.4771 23.0798 17.7379 23.1998 17.9987 23.1998C18.2594 23.1998 18.5202 23.0998 18.7007 22.8998C18.8813 22.7198 19.0016 22.4598 19.0016 22.1998C19.0016 21.9398 18.9013 21.6798 18.7007 21.4998C18.5403 21.3198 18.2795 21.1998 17.9987 21.1998ZM27.2864 17.9998C27.2864 23.0798 23.154 27.1998 18.0588 27.1998C12.9636 27.1998 8.8313 23.0798 8.8313 17.9998C8.8313 12.9198 12.9636 8.7998 18.0588 8.7998C23.154 8.7998 27.2864 12.9198 27.2864 17.9998ZM25.6816 17.9998C25.6816 13.7998 22.2714 10.3998 18.0588 10.3998C13.8463 10.3998 10.4361 13.7998 10.4361 17.9998C10.4361 22.1998 13.8463 25.5998 18.0588 25.5998C22.2714 25.5998 25.6816 22.1998 25.6816 17.9998Z" fill="#4552CB"/>
<ellipse opacity="0.15" cx="18.0539" cy="18" rx="18.0539" ry="18" fill="#4552CB"/>
</svg>
