<svg width="15" height="20" viewBox="0 0 15 20" fill="none" xmlns="http://www.w3.org/2000/svg">
<path d="M5.71429 9.28571C5.71429 9.09627 5.78954 8.91459 5.9235 8.78064C6.05745 8.64668 6.23913 8.57143 6.42857 8.57143H10.7143C10.9037 8.57143 11.0854 8.64668 11.2194 8.78064C11.3533 8.91459 11.4286 9.09627 11.4286 9.28571C11.4286 9.47515 11.3533 9.65684 11.2194 9.79079C11.0854 9.92475 10.9037 10 10.7143 10H6.42857C6.23913 10 6.05745 9.92475 5.9235 9.79079C5.78954 9.65684 5.71429 9.47515 5.71429 9.28571ZM5.71429 13.5714C5.71429 13.382 5.78954 13.2003 5.9235 13.0664C6.05745 12.9324 6.23913 12.8571 6.42857 12.8571H10.7143C10.9037 12.8571 11.0854 12.9324 11.2194 13.0664C11.3533 13.2003 11.4286 13.382 11.4286 13.5714C11.4286 13.7609 11.3533 13.9426 11.2194 14.0765C11.0854 14.2105 10.9037 14.2857 10.7143 14.2857H6.42857C6.23913 14.2857 6.05745 14.2105 5.9235 14.0765C5.78954 13.9426 5.71429 13.7609 5.71429 13.5714ZM3.57143 10C3.76087 10 3.94255 9.92475 4.07651 9.79079C4.21046 9.65684 4.28571 9.47515 4.28571 9.28571C4.28571 9.09627 4.21046 8.91459 4.07651 8.78064C3.94255 8.64668 3.76087 8.57143 3.57143 8.57143C3.38199 8.57143 3.20031 8.64668 3.06635 8.78064C2.9324 8.91459 2.85714 9.09627 2.85714 9.28571C2.85714 9.47515 2.9324 9.65684 3.06635 9.79079C3.20031 9.92475 3.38199 10 3.57143 10ZM3.57143 14.2857C3.76087 14.2857 3.94255 14.2105 4.07651 14.0765C4.21046 13.9426 4.28571 13.7609 4.28571 13.5714C4.28571 13.382 4.21046 13.2003 4.07651 13.0664C3.94255 12.9324 3.76087 12.8571 3.57143 12.8571C3.38199 12.8571 3.20031 12.9324 3.06635 13.0664C2.9324 13.2003 2.85714 13.382 2.85714 13.5714C2.85714 13.7609 2.9324 13.9426 3.06635 14.0765C3.20031 14.2105 3.38199 14.2857 3.57143 14.2857ZM2.97857 1.42857C3.12635 1.0106 3.40012 0.648755 3.76216 0.392897C4.1242 0.13704 4.55668 -0.000232114 5 2.94624e-07H9.28572C9.72904 -0.000232114 10.1615 0.13704 10.5236 0.392897C10.8856 0.648755 11.1594 1.0106 11.3071 1.42857H12.1429C12.7112 1.42857 13.2562 1.65434 13.6581 2.0562C14.06 2.45806 14.2857 3.00311 14.2857 3.57143V17.8571C14.2857 18.4255 14.06 18.9705 13.6581 19.3724C13.2562 19.7742 12.7112 20 12.1429 20H2.14286C1.57454 20 1.02949 19.7742 0.627628 19.3724C0.225765 18.9705 0 18.4255 0 17.8571V3.57143C0 3.00311 0.225765 2.45806 0.627628 2.0562C1.02949 1.65434 1.57454 1.42857 2.14286 1.42857H2.97857ZM5 1.42857C4.81056 1.42857 4.62888 1.50383 4.49492 1.63778C4.36097 1.77174 4.28571 1.95342 4.28571 2.14286C4.28571 2.3323 4.36097 2.51398 4.49492 2.64793C4.62888 2.78189 4.81056 2.85714 5 2.85714H9.28572C9.47516 2.85714 9.65684 2.78189 9.79079 2.64793C9.92475 2.51398 10 2.3323 10 2.14286C10 1.95342 9.92475 1.77174 9.79079 1.63778C9.65684 1.50383 9.47516 1.42857 9.28572 1.42857H5ZM2.97857 2.85714H2.14286C1.95342 2.85714 1.77174 2.9324 1.63778 3.06635C1.50383 3.20031 1.42857 3.38199 1.42857 3.57143V17.8571C1.42857 18.0466 1.50383 18.2283 1.63778 18.3622C1.77174 18.4962 1.95342 18.5714 2.14286 18.5714H12.1429C12.3323 18.5714 12.514 18.4962 12.6479 18.3622C12.7819 18.2283 12.8571 18.0466 12.8571 17.8571V3.57143C12.8571 3.38199 12.7819 3.20031 12.6479 3.06635C12.514 2.9324 12.3323 2.85714 12.1429 2.85714H11.3071C11.1594 3.27511 10.8856 3.63696 10.5236 3.89282C10.1615 4.14868 9.72904 4.28595 9.28572 4.28571H5C4.55668 4.28595 4.1242 4.14868 3.76216 3.89282C3.40012 3.63696 3.12635 3.27511 2.97857 2.85714Z" fill="#BBC3CE"/>
</svg>
