<svg width="18" height="22" viewBox="0 0 18 22" fill="none" xmlns="http://www.w3.org/2000/svg">
<path d="M13 3H15C15.5304 3 16.0391 3.21071 16.4142 3.58579C16.7893 3.96086 17 4.46957 17 5V19C17 19.5304 16.7893 20.0391 16.4142 20.4142C16.0391 20.7893 15.5304 21 15 21H3C2.46957 21 1.96086 20.7893 1.58579 20.4142C1.21071 20.0391 1 19.5304 1 19V5C1 4.46957 1.21071 3.96086 1.58579 3.58579C1.96086 3.21071 2.46957 3 3 3H5" stroke="#4552CB" stroke-width="2" stroke-linecap="round" stroke-linejoin="round"/>
<path d="M12 1H6C5.73478 1 5.48043 1.10536 5.29289 1.29289C5.10536 1.48043 5 1.73478 5 2V4C5 4.26522 5.10536 4.51957 5.29289 4.70711C5.48043 4.89464 5.73478 5 6 5H12C12.2652 5 12.5196 4.89464 12.7071 4.70711C12.8946 4.51957 13 4.26522 13 4V2C13 1.73478 12.8946 1.48043 12.7071 1.29289C12.5196 1.10536 12.2652 1 12 1V1Z" stroke="#4552CB" stroke-width="2" stroke-linecap="round" stroke-linejoin="round"/>
<path d="M9 10H13" stroke="#4552CB" stroke-width="2" stroke-linecap="round" stroke-linejoin="round"/>
<path d="M9 15H13" stroke="#4552CB" stroke-width="2" stroke-linecap="round" stroke-linejoin="round"/>
<path d="M5 10H5.01" stroke="#4552CB" stroke-width="2" stroke-linecap="round" stroke-linejoin="round"/>
<path d="M5 15H5.01" stroke="#4552CB" stroke-width="2" stroke-linecap="round" stroke-linejoin="round"/>
</svg>
