<svg width="37" height="36" viewBox="0 0 37 36" fill="none" xmlns="http://www.w3.org/2000/svg">
<ellipse opacity="0.15" cx="18.0539" cy="18" rx="18.0539" ry="18" fill="#4552CB"/>
<path d="M13.25 8.75H21.125C21.5891 8.75 22.0342 8.93437 22.3624 9.26256C22.6906 9.59075 22.875 10.0359 22.875 10.5V11.375C22.875 11.6071 22.7828 11.8296 22.6187 11.9937C22.4546 12.1578 22.2321 12.25 22 12.25C21.7679 12.25 21.5454 12.1578 21.3813 11.9937C21.2172 11.8296 21.125 11.6071 21.125 11.375V10.5H13.25V24.5H21.125V23.625C21.125 23.3929 21.2172 23.1704 21.3813 23.0063C21.5454 22.8422 21.7679 22.75 22 22.75C22.2321 22.75 22.4546 22.8422 22.6187 23.0063C22.7828 23.1704 22.875 23.3929 22.875 23.625V24.5C22.875 24.9641 22.6906 25.4093 22.3624 25.7374C22.0342 26.0656 21.5891 26.25 21.125 26.25H13.25C12.7859 26.25 12.3408 26.0656 12.0126 25.7374C11.6844 25.4093 11.5 24.9641 11.5 24.5V10.5C11.5 10.0359 11.6844 9.59075 12.0126 9.26256C12.3408 8.93437 12.7859 8.75 13.25 8.75Z" fill="#4552CB"/>
<path d="M22.6956 21.258C23.0369 21.5992 23.5881 21.5992 23.9294 21.258L27.0689 18.1185C27.2329 17.9544 27.3251 17.7319 27.3251 17.4999C27.3251 17.2678 27.2329 17.0453 27.0689 16.8812L23.9294 13.7417C23.763 13.5914 23.5453 13.5107 23.3212 13.5164C23.0971 13.522 22.8837 13.6136 22.7251 13.7721C22.5666 13.9307 22.4751 14.1441 22.4694 14.3682C22.4637 14.5923 22.5444 14.81 22.6948 14.9764L24.3363 16.6249H16.75C16.5179 16.6249 16.2954 16.7171 16.1313 16.8811C15.9672 17.0452 15.875 17.2678 15.875 17.4999C15.875 17.7319 15.9672 17.9545 16.1313 18.1186C16.2954 18.2827 16.5179 18.3749 16.75 18.3749H24.3363L22.6948 20.0234C22.5314 20.1873 22.4398 20.4094 22.4399 20.6409C22.4401 20.8723 22.5321 21.0942 22.6956 21.258Z" fill="#4552CB"/>
</svg>
