<svg width="37" height="36" viewBox="0 0 37 36" fill="none" xmlns="http://www.w3.org/2000/svg">
<path d="M21.048 13.8998C21.6899 14.6198 21.9908 15.5998 21.8504 16.6398C21.6097 18.5598 20.2055 19.2398 18.9618 19.2398C18.9016 19.2398 18.8615 19.2398 18.8615 19.2398V19.7198C18.8615 20.1598 18.5004 20.5198 18.0591 20.5198C17.6178 20.5198 17.2567 20.1598 17.2567 19.7198V19.0798C17.2567 18.4198 17.5375 17.6398 18.9618 17.6398C19.7441 17.6398 20.1453 17.2398 20.2456 16.4398C20.2857 16.1798 20.3058 15.4798 19.8244 14.9598C19.4432 14.5398 18.8214 14.3198 17.9788 14.3198C16.1735 14.3198 16.1133 15.4998 16.1133 15.6198C16.1133 16.0598 15.7522 16.4198 15.3109 16.4198C14.8696 16.4198 14.5085 16.0598 14.5085 15.6198C14.5085 14.8198 15.1303 12.7198 17.9788 12.7198C19.6438 12.7198 20.5666 13.3598 21.048 13.8998ZM17.9989 21.1998C17.7381 21.1998 17.4773 21.2998 17.2968 21.4998C17.1163 21.6798 16.9959 21.9398 16.9959 22.1998C16.9959 22.4598 17.0962 22.7198 17.2968 22.8998C17.4773 23.0798 17.7381 23.1998 17.9989 23.1998C18.2597 23.1998 18.5205 23.0998 18.701 22.8998C18.8815 22.7198 19.0019 22.4598 19.0019 22.1998C19.0019 21.9398 18.9016 21.6798 18.701 21.4998C18.5405 21.3198 18.2797 21.1998 17.9989 21.1998ZM27.2866 17.9998C27.2866 23.0798 23.1543 27.1998 18.0591 27.1998C12.9639 27.1998 8.83154 23.0798 8.83154 17.9998C8.83154 12.9198 12.9639 8.7998 18.0591 8.7998C23.1543 8.7998 27.2866 12.9198 27.2866 17.9998ZM25.6818 17.9998C25.6818 13.7998 22.2717 10.3998 18.0591 10.3998C13.8465 10.3998 10.4363 13.7998 10.4363 17.9998C10.4363 22.1998 13.8465 25.5998 18.0591 25.5998C22.2717 25.5998 25.6818 22.1998 25.6818 17.9998Z" fill="#0D9C57"/>
<ellipse opacity="0.15" cx="18.0539" cy="18" rx="18.0539" ry="18" fill="#0D9C57"/>
</svg>
