<svg width="36" height="36" viewBox="0 0 36 36" fill="none" xmlns="http://www.w3.org/2000/svg">
<path d="M20.0418 12.0301H21.5418V10.5301V8.05242V6.55242H20.0418H16.9585H15.4585V8.05242V10.5301V12.0301H16.9585H20.0418ZM20.0418 17.6049H21.5418V16.1049V13.6272V12.1272H20.0418H16.9585H15.4585V13.6272V16.1049V17.6049H16.9585H20.0418ZM20.0418 23.1797H21.5418V21.6797V19.202V17.702H20.0418H16.9585H15.4585V19.202V21.6797V23.1797H16.9585H20.0418ZM32.4168 7.433V11.1053C31.829 11.2803 31.275 11.5607 30.797 11.9448C29.9161 12.6527 29.3335 13.692 29.3335 14.8661C29.3335 16.0401 29.9161 17.0794 30.797 17.7873C31.275 18.1714 31.829 18.4518 32.4168 18.6268V22.2991C32.4168 22.4393 32.3497 22.6604 32.0742 22.8818C31.7899 23.1102 31.3467 23.2768 30.8335 23.2768H6.16683C5.65358 23.2768 5.21039 23.1102 4.92617 22.8818C4.6506 22.6604 4.5835 22.4393 4.5835 22.2991V18.6268C5.17134 18.4518 5.72533 18.1714 6.20333 17.7873C7.08423 17.0794 7.66683 16.0401 7.66683 14.8661C7.66683 13.692 7.08423 12.6527 6.20333 11.9448C5.72533 11.5607 5.17134 11.2803 4.5835 11.1053V7.433C4.5835 7.29278 4.65059 7.07173 4.92617 6.85028C5.21039 6.62189 5.65358 6.45532 6.16683 6.45532H30.8335C31.3467 6.45532 31.7899 6.62189 32.0741 6.85028C32.3497 7.07173 32.4168 7.29278 32.4168 7.433Z" fill="#0D9C57" stroke="#115F22" stroke-width="3"/>
</svg>
