<svg width="88" height="86" viewBox="0 0 88 86" fill="none" xmlns="http://www.w3.org/2000/svg">
<path fill-rule="evenodd" clip-rule="evenodd" d="M40.5683 5.28245C60.9925 4.82545 80.802 16.5387 86.6368 36.117C92.1242 54.5295 80.3533 73.3379 63.7126 82.941C51.1053 90.2164 37.9061 79.5122 26.0347 71.0894C13.4716 62.1758 -2.8861 53.0874 0.435867 38.0458C4.55325 19.4026 21.4806 5.70953 40.5683 5.28245Z" fill="white" fill-opacity="0.5"/>
<path d="M31.2517 38.5729C31.2517 38.5729 19.027 38.0484 15.638 30.2214C14.7907 28.3251 13.7014 25.7027 13.7014 22.8785C15.8397 25.3396 16.9694 25.5413 16.9694 25.5413C16.9694 25.5413 15.2345 23.6047 14.9925 20.6595C14.71 17.3512 16.2028 13.3166 17.0097 11.5818C17.2922 12.2677 18.3008 12.9132 18.3008 12.9132C18.3008 12.9132 21.7301 5.40893 29.3151 5.52997C28.3468 6.78068 28.5082 7.87 28.5082 7.87C28.5082 7.87 29.8799 7.22448 33.2689 7.87C38.9576 8.95933 40.1277 12.8325 40.1277 12.8325C40.1277 12.8325 31.2113 9.6452 24.7964 17.1898C22.5774 19.7719 23.3036 29.7372 32.8655 34.2156" fill="white"/>
<path d="M33.2286 39.0974C33.2286 39.0974 21.5285 38.0484 18.1395 30.2214C17.2922 28.3251 17.0905 27.1148 17.2115 26.3886C19.3498 28.8496 20.4795 29.0514 20.4795 29.0514C20.4795 29.0514 18.1798 27.2358 17.0098 21.1437C16.5256 18.6422 17.2115 16.3022 18.0184 14.5673C18.3008 15.2532 19.3095 15.8987 19.3095 15.8987C19.3095 15.8987 20.6409 8.95933 27.2979 7.5069C26.3296 8.75761 26.4909 9.84693 26.4909 9.84693C26.4909 9.84693 31.8972 7.70863 35.2459 8.35415C40.9346 9.44348 42.1046 13.3166 42.1046 13.3166C42.1046 13.3166 33.1883 10.1294 26.7734 17.674C24.5544 20.2561 25.2806 30.2214 34.8425 34.6997" fill="#F1A852"/>
<path d="M36.2949 25.5817L32.3411 32.1983C32.3411 32.1983 27.419 39.9446 26.2086 40.9533C25.4017 41.6391 24.1913 42.5671 23.5054 43.0916C23.1423 43.374 23.0213 43.8581 23.1827 44.2616L24.3124 47.0858C24.5141 47.5699 24.9982 47.812 25.4824 47.7313L31.7359 46.6016C32.1797 46.5209 32.5025 46.1175 32.5025 45.6737L32.4218 41.155C32.4218 40.9533 32.5025 40.7515 32.7042 40.6708L33.8339 39.9446C33.8339 39.9446 33.7935 48.9013 34.318 50.8379C34.6811 52.129 35.9722 58.5035 35.9722 58.5035L32.6639 65.1202C32.5025 65.443 32.5832 65.8061 32.8252 66.0481L35.9318 68.7916C36.1739 69.0337 36.5774 69.074 36.9001 68.953L41.3381 66.9357C41.7012 66.7744 41.903 66.4112 41.8626 66.0481L40.8943 53.8638L40.5716 46.8034L57.1132 48.0137L55.5397 65.4429C55.4994 65.8464 55.7011 66.2499 56.0239 66.4919L59.897 69.1547C60.2601 69.3968 60.7846 69.3968 61.1477 69.1144L64.3754 66.4112C64.7385 66.0885 64.8595 65.6043 64.6174 65.1605L61.2688 58.7053C61.2688 58.7053 62.5195 51.8062 63.0843 49.5468C63.9316 46.1175 63.4071 39.4605 63.4071 39.4605L65.0209 40.8726V46.3192C65.0209 46.6016 65.2226 46.8437 65.5454 46.884L71.9199 47.5699C72.4041 47.6103 72.8479 47.3682 73.0496 46.9244L74.2196 44.423C74.381 44.0599 74.3003 43.6564 73.9776 43.374C72.6058 42.2847 68.9344 39.2588 68.3695 37.9274C67.6433 36.3135 63.9316 30.7459 63.9316 30.4635C63.9316 30.181 61.0267 26.1868 61.0267 26.1868L51.1421 35.5873L38.8367 31.6335L36.4563 25.501" fill="#ED6D4E"/>
<path d="M35.7705 25.8237L32.7446 31.4721L33.7936 32.8842C33.7936 32.8842 33.7129 46.1175 33.9146 48.1348C34.1164 50.152 37.8685 53.42 40.8137 54.1059C40.733 52.6938 40.5313 46.5613 40.5313 46.5613L35.7705 25.8237Z" fill="#F1A852"/>
<path d="M57.0728 47.3682L56.5886 53.1779C56.5886 53.1779 62.4387 51.322 62.8825 49.9099C63.3667 48.4172 63.9718 42.6881 63.0035 38.008C62.1966 34.1349 62.358 34.1349 62.358 34.1349L64.8594 32.2386L61.3494 25.6623L60.5425 26.4692C60.5425 26.4692 60.9459 35.3856 60.5425 38.1291C60.139 40.9129 59.1707 46.6823 57.0728 47.3682Z" fill="#F1A852"/>
<path d="M34.439 32.1176C34.6003 31.9562 35.0038 31.4721 35.0038 31.4721L35.4476 29.6162L35.8914 28.2848L35.9317 26.5096L35.5686 26.1868L32.7041 31.5124L33.7531 32.9245C33.7531 32.8842 34.2776 32.3193 34.439 32.1176Z" fill="#ED6D4E"/>
<path d="M61.9545 32.8842L60.5828 26.5499L61.3493 25.7027L64.8997 32.279L62.358 34.1752L61.9545 32.8842Z" fill="#ED6D4E"/>
<path d="M36.4564 15.0918L35.8915 28.2848C35.8915 28.2848 34.7619 31.1897 34.9636 32.7228C35.1653 34.2559 36.4967 44.423 37.0615 45.6333C37.6667 46.8437 43.7185 50.7976 47.632 50.7976C51.5456 50.7976 57.7991 48.861 58.9288 47.4892C60.0584 46.1175 62.0757 37.2011 62.2371 33.9735C62.3985 30.7459 60.825 26.1868 60.825 26.1868L60.4215 16.1408L36.4564 15.0918Z" fill="#F9FAFB"/>
<path opacity="0.04" d="M35.8916 28.2848C35.8916 28.2848 44.3641 37.5642 61.2689 40.3077C63.5282 30.9476 61.3899 28.3655 60.9057 26.1465C60.1795 23.7258 60.5023 16.1005 60.5023 16.1005L36.4968 15.0918L35.9723 26.5096L35.8916 28.2848Z" fill="#3C3C56"/>
<path d="M38.1509 3.67408C38.1509 3.67408 43.1941 0.406098 47.6321 0.0429888C47.7935 0.0429888 47.9952 0.00264394 48.1566 0.00264394C54.2487 -0.118392 58.606 3.9565 58.606 3.9565L60.4216 11.6221V16.0601C60.4216 16.0601 57.4764 21.063 56.1046 24.6134C55.4995 26.1868 54.047 34.619 49.2056 34.619C44.2834 34.619 44.0414 31.4721 42.6696 28.2444C41.1768 24.6941 38.1913 19.9333 36.5774 16.625C36.5371 16.5443 36.4564 16.5039 36.3757 16.4636C34.4391 14.8901 38.1509 3.67408 38.1509 3.67408Z" fill="#F1A852"/>
<path d="M41.4591 21.6278C41.4591 21.6278 41.1364 23.5644 41.4591 24.2906C41.7819 25.0168 43.1133 28.9707 43.1133 28.9707L45.0499 32.9245C45.0499 32.9245 47.0671 34.5383 48.5599 34.5787C50.0527 34.619 51.5455 33.6507 51.9893 33.2069C52.4331 32.7631 54.3293 29.1724 54.41 28.1234C54.4907 27.0744 54.8538 25.0572 55.2169 23.9275C55.6204 22.6768 55.6204 21.0226 55.6204 21.0226L41.4591 21.6278Z" fill="#382F2D"/>
<path d="M43.7991 23.7661C43.7991 23.7661 44.5253 28.4058 44.7674 29.4548C44.9691 30.4231 45.8567 32.9245 48.3581 32.9245C51.2226 32.9245 51.6664 31.8755 52.0699 30.5441C52.554 28.89 52.7558 27.9217 52.7961 27.1955C52.8364 26.3079 53.3206 23.7258 53.3206 23.7258H43.7991V23.7661Z" fill="#FCC4CD"/>
<path d="M60.0583 16.5039C60.0583 16.5039 58.3638 18.3598 57.3552 20.0543C56.4676 21.5471 55.4993 23.0802 54.4906 25.8237C53.9662 27.2358 54.4503 33.1666 49.2054 33.9332C49.2054 33.9332 46.704 34.0138 45.2919 32.4404C44.1219 31.1493 43.5167 28.9707 42.7098 26.9534C42.0643 25.2992 41.1363 23.6854 40.5311 22.6364C39.8453 21.4664 38.2314 18.7229 37.8683 18.1984C37.7876 18.0774 37.4649 17.4722 36.9404 16.9074C36.8194 16.7863 36.3352 16.3829 36.3352 16.3829C36.3756 16.3829 36.3352 16.4232 36.3352 16.4636C36.3756 16.5443 36.4563 16.6653 36.4966 16.746C37.5859 18.8843 40.0066 21.7488 41.9432 27.7603C43.3957 32.279 45.1305 34.7401 49.1651 34.7401C54.531 34.7401 55.4589 26.2675 56.0641 24.6941C57.2341 21.6681 59.5338 17.6739 60.2197 16.4636H60.0583V16.5039Z" fill="white"/>
<path d="M38.1507 3.67409C38.1507 3.67409 37.5052 3.83547 36.6176 4.0372C36.0124 4.15823 36.4966 15.2129 36.4966 15.2129L38.1507 3.67409Z" fill="#C7482C"/>
<path d="M58.4043 3.79512C58.4043 3.79512 59.2919 3.91616 59.6953 3.99685C60.0585 4.52134 60.5829 12.3887 60.5829 12.3887L58.4043 3.79512Z" fill="#C7482C"/>
<path d="M36.9809 26.3079C36.3354 26.7113 35.5285 26.4693 34.9233 26.2675C32.5026 25.3396 26.0876 22.3944 26.0876 15.6163C26.0876 7.91036 36.6178 4.07755 36.6178 4.07755C36.2143 4.11789 36.6581 10.089 37.3037 15.8181C37.8685 20.9823 38.3527 25.4203 36.9809 26.3079Z" fill="#ED6D4E"/>
<path d="M59.6953 3.99684C59.6953 3.99684 70.2658 13.5991 70.4675 14.6077C70.6692 15.6163 71.4762 16.625 68.3696 20.8612C65.263 25.0975 61.4301 27.6393 59.2918 25.8641C58.0008 24.6941 59.5339 20.9419 59.897 13.5991C59.9777 11.1783 59.6953 3.99684 59.6953 3.99684Z" fill="#ED6D4E"/>
<path opacity="0.1" d="M48.0354 0.446446L46.3812 10.089C46.3409 10.4925 45.6953 11.6625 45.3322 11.9046C43.8798 13.5587 41.9029 14.5674 40.7732 17.8757C40.5311 20.4981 40.3294 22.5557 42.7905 24.8151C44.5657 26.4289 46.4619 26.4289 47.6319 25.7027C48.6002 25.0572 49.2457 25.501 49.2457 25.501C49.2457 25.501 49.8509 26.1465 51.3437 26.0658C52.433 25.9851 54.4503 24.6134 55.1765 23.403C55.9834 22.0313 56.6693 18.844 55.1765 15.697C53.361 13.2359 51.1016 12.1466 50.7385 10.6538C49.9719 7.62793 48.6002 0.446446 48.6002 0.446446C48.6002 0.446446 48.1967 0.365755 48.0354 0.446446Z" fill="#060822"/>
<path d="M48.0354 0.0429885L46.3812 9.68555C46.3409 10.089 45.6953 11.259 45.3322 11.5011C43.8798 13.1553 41.9029 14.1639 40.7732 17.4722C40.5311 20.0947 40.3294 22.1523 42.7905 24.4116C44.5657 26.0255 46.4619 26.0255 47.6319 25.2992C48.6002 24.6537 49.2457 25.0975 49.2457 25.0975C49.2457 25.0975 49.8509 25.743 51.3437 25.6623C52.433 25.5816 54.4503 24.2099 55.1765 22.9995C55.9834 21.6278 56.6693 18.4405 55.1765 15.2936C53.361 12.8325 51.1016 11.7432 50.7385 10.2504C49.9719 7.22447 48.6002 0.0429885 48.6002 0.0429885C48.6002 0.0429885 48.1967 -0.0377024 48.0354 0.0429885Z" fill="white"/>
<path d="M38.7964 10.0083C38.7964 10.0083 39.4823 8.07174 41.5399 8.35416C42.7906 8.55588 43.4765 9.60487 43.4765 9.60487C43.4765 9.60487 42.8713 11.3801 41.1364 11.3801C39.7243 11.3801 38.7964 10.0083 38.7964 10.0083Z" fill="#382F2D"/>
<path d="M53.4417 9.84693C53.4417 9.84693 53.8451 8.15242 55.9027 8.3138C57.5972 8.3138 58.1217 9.84693 58.1217 9.84693C58.1217 9.84693 57.6376 11.5818 55.7817 11.3801C53.9258 11.1783 53.4417 9.84693 53.4417 9.84693Z" fill="#382F2D"/>
<path d="M48.5599 22.9995C47.2285 22.9995 44.9692 20.9823 44.485 19.1264C43.7588 16.4232 46.8654 16.5039 46.8654 16.5039C46.8654 16.5039 49.4475 16.3425 50.9806 16.5039C52.7962 16.7056 52.8365 18.4002 52.6348 19.0053C52.191 20.4578 50.4158 23.0802 48.5599 22.9995Z" fill="#382F2D"/>
</svg>
