<svg width="40" height="40" viewBox="0 0 40 40" fill="none" xmlns="http://www.w3.org/2000/svg">
<path d="M10 22.0465L17.875 30L25.3125 25.814L31 22.0465L28.8125 15.7674L25.3125 13.6744L22.25 12H17.875L10 17.0233V22.0465Z" fill="#ED6D4E"/>
<path fill-rule="evenodd" clip-rule="evenodd" d="M25.6778 20.1423C25.2447 20.4176 24.9189 20.7655 24.6992 21.1863C24.5914 21.4175 24.5257 21.6338 24.5019 21.8358C24.4697 22.0869 24.4977 22.33 24.5851 22.5658C24.7132 22.8607 24.9104 23.0732 25.1777 23.203C25.347 23.2908 25.5412 23.3506 25.761 23.3829C26.0702 23.4109 26.4049 23.3595 26.7634 23.2306C27.0043 23.1228 27.2317 22.9858 27.4455 22.8199C27.7306 22.5866 27.9452 22.3274 28.089 22.0424L28.1875 21.8294C28.2413 21.7144 28.2795 21.5715 28.3011 21.4018C28.3491 21.1206 28.3266 20.8601 28.2329 20.6208C28.1149 20.3396 27.9295 20.1266 27.6759 19.9832C27.5164 19.8874 27.3318 19.8288 27.1223 19.8068C26.7969 19.7669 26.4656 19.8089 26.1283 19.9323C25.9744 19.9926 25.8238 20.0626 25.6778 20.1423ZM26.013 15.3042C25.8034 15.2283 25.596 15.2011 25.3902 15.2236C25.1187 15.2372 24.846 15.3144 24.5706 15.454C24.2873 15.5935 24.0137 15.7942 23.7507 16.0555C23.5326 16.285 23.3477 16.548 23.1937 16.8454C23.1194 17.0027 23.0689 17.1275 23.0409 17.2191C22.9777 17.4066 22.9345 17.6009 22.9124 17.8028C22.8827 18.0841 22.9167 18.3611 23.0138 18.6343C23.1317 18.9554 23.3404 19.1972 23.6395 19.3588C23.8088 19.4466 23.995 19.5022 24.1961 19.5264C24.4438 19.5459 24.7162 19.5086 25.0131 19.4123C25.2846 19.3126 25.551 19.1582 25.8123 18.9486C26.1737 18.6593 26.4529 18.3136 26.6501 17.9106C26.7698 17.6849 26.8478 17.4567 26.8839 17.225C26.9458 16.926 26.9526 16.6439 26.9047 16.3783C26.8232 15.9499 26.6086 15.6304 26.2615 15.4209L26.2497 15.4031L26.0371 15.3042H26.013ZM16.9043 20.2743C16.6231 20.3557 16.3512 20.4635 16.0877 20.5975C15.7131 20.799 15.4069 21.0264 15.1693 21.2796C15.0098 21.4413 14.863 21.6398 14.7294 21.8744C14.6234 22.0682 14.5491 22.2604 14.505 22.4526C14.3811 22.9871 14.4541 23.5016 14.7235 23.9963C14.8872 24.2682 15.1095 24.4884 15.3907 24.6576L15.5405 24.7386L16.0644 24.9448C16.2481 24.9923 16.5561 25.0555 16.9892 25.1332L17.8567 25.3033L18.2847 25.4441C18.5159 25.5518 18.6835 25.6375 18.7874 25.7012C18.9927 25.8272 19.2154 25.9854 19.4547 26.1767C19.6303 26.3205 19.8878 26.5373 20.2263 26.8262C20.4342 26.9878 20.5996 27.0968 20.7235 27.1524L20.768 27.1736L20.7858 27.1914L21.0073 27.2962H21.0285L21.1091 27.3323L21.3687 27.3946C21.6143 27.4404 21.868 27.4426 22.1293 27.401C22.4903 27.3331 22.8042 27.1978 23.0719 26.9942C23.357 26.7668 23.5738 26.4694 23.721 26.102C23.8071 25.8989 23.8669 25.66 23.9008 25.3868C23.9326 25.0657 23.9195 24.7514 23.8614 24.4442C23.7982 24.0773 23.693 23.7239 23.5475 23.3846C23.4219 23.1152 23.3222 22.8255 23.2484 22.5141C23.1763 22.1989 23.1215 21.8964 23.0838 21.6071L22.9726 20.7935C22.9188 20.5042 22.8526 20.2526 22.772 20.0392C22.6244 19.6821 22.4093 19.3881 22.1259 19.1565C21.9427 19.0148 21.7318 18.8879 21.4947 18.7764C21.2991 18.6962 21.0921 18.6474 20.8724 18.6296C20.6187 18.6198 20.3353 18.6665 20.0223 18.7704C19.811 18.8544 19.6048 18.9461 19.4033 19.0453C19.2175 19.1395 18.9494 19.288 18.5986 19.4912C18.2359 19.6986 17.9284 19.8602 17.6768 19.976C17.4214 20.1092 17.1644 20.2081 16.9043 20.2743ZM19.1908 14.6458C19.1289 14.827 19.0759 15.0136 19.0317 15.2054C18.974 15.5863 18.9749 15.9299 19.0347 16.2375C19.0826 16.5348 19.1895 16.808 19.355 17.0575C19.5009 17.2649 19.6647 17.4147 19.8488 17.5067C20.0638 17.6302 20.2997 17.6861 20.5547 17.6743C20.7621 17.6624 20.9746 17.6013 21.1922 17.4919C21.5032 17.3145 21.7607 17.071 21.9639 16.7614C22.0555 16.6396 22.1425 16.492 22.2243 16.3185L22.3558 15.9236C22.4258 15.7042 22.4704 15.4697 22.4878 15.2206C22.4975 14.8274 22.4373 14.4596 22.3049 14.1164C22.2171 13.8946 22.0907 13.7003 21.9249 13.5327C21.725 13.3274 21.4951 13.2027 21.2334 13.159C20.9823 13.1051 20.7231 13.1323 20.4558 13.2396C20.2306 13.3312 20.0235 13.4699 19.8365 13.6553C19.607 13.8789 19.4186 14.1512 19.2706 14.4723L19.1908 14.6458ZM16.9586 15.0013C16.6935 14.9339 16.4301 14.9547 16.1687 15.0645C15.9511 15.1604 15.7564 15.311 15.585 15.5163C15.5112 15.6084 15.4395 15.7127 15.3695 15.8307L15.3394 15.8637L15.2139 16.1331L15.154 16.3363C15.0722 16.6116 15.0382 16.8861 15.0522 17.1593C15.0624 17.4702 15.1171 17.7468 15.2172 17.9882C15.3309 18.2813 15.4875 18.5218 15.6868 18.7093C15.8523 18.8574 16.0377 18.9639 16.2434 19.0296C16.5268 19.1077 16.8089 19.0865 17.0901 18.9668C17.3094 18.8752 17.5071 18.7208 17.6828 18.5032C17.7884 18.3793 17.8893 18.2151 17.9844 18.0098L18.0921 17.7226C18.16 17.5029 18.1948 17.2967 18.1969 17.1033C18.2168 16.6901 18.1511 16.3036 17.9996 15.9422C17.8876 15.6949 17.7371 15.4883 17.5479 15.3233C17.3684 15.154 17.1724 15.048 16.9586 15.0013ZM25.2379 4.28663C26.0978 5.1465 26.5275 6.1837 26.5275 7.39821V13.4754H32.6018C33.8163 13.4754 34.8539 13.9043 35.7134 14.7621C36.5711 15.6219 37 16.6596 37 17.8741V22.1259C37 23.3404 36.5711 24.3772 35.7134 25.2345C34.8539 26.0944 33.8163 26.5246 32.6018 26.5246H26.5275V32.6014C26.5275 33.8163 26.0978 34.8526 25.2379 35.7104C24.3802 36.5699 23.3438 37 22.1293 37H17.8775C16.6625 37 15.6253 36.5699 14.7655 35.7104C13.9077 34.8526 13.4788 33.8163 13.4788 32.6014V26.525H7.39863C6.1837 26.525 5.14735 26.0948 4.2896 25.235C3.43015 24.3776 3 23.3409 3 22.1264V17.8745C3 16.6596 3.43015 15.6219 4.2896 14.7625C5.14735 13.9047 6.1837 13.4759 7.39863 13.4759H13.4788V7.39821C13.4788 6.18327 13.9077 5.14608 14.7655 4.28663C15.6253 3.42888 16.6625 3 17.8775 3H22.1293C23.3438 3 24.3802 3.42888 25.2379 4.28663Z" fill="#FFCF6F"/>
</svg>
