<svg width="32" height="31" viewBox="0 0 32 31" fill="none" xmlns="http://www.w3.org/2000/svg">
<path fill-rule="evenodd" clip-rule="evenodd" d="M26.2023 9.17759C27.8823 9.17759 29.2441 7.81573 29.2441 6.13579C29.2441 4.45585 27.8823 3.09399 26.2023 3.09399C24.5224 3.09399 23.1605 4.45585 23.1605 6.13579C23.1605 7.81573 24.5224 9.17759 26.2023 9.17759ZM13.0209 22.3586C14.4692 22.3586 15.7993 21.8525 16.844 21.0076C17.7421 22.4289 19.3272 23.3728 21.1328 23.3728C23.9327 23.3728 26.2025 21.103 26.2025 18.3031C26.2025 15.5032 23.9327 13.2335 21.1328 13.2335C20.2195 13.2335 19.3626 13.475 18.6225 13.8976C17.6967 11.7191 15.5372 10.1914 13.0209 10.1914C9.66104 10.1914 6.93732 12.9151 6.93732 16.275C6.93732 19.6349 9.66104 22.3586 13.0209 22.3586Z" fill="#FFC4CD"/>
<path fill-rule="evenodd" clip-rule="evenodd" d="M6.56014 4.61521C6.56014 3.16006 7.72336 2 9.13427 2C10.5452 2 11.7084 3.16006 11.7084 4.61521C11.7084 5.16749 12.1561 5.61521 12.7084 5.61521C13.2607 5.61521 13.7084 5.16749 13.7084 4.61521C13.7084 2.0771 11.6712 0 9.13427 0C6.59731 0 4.56014 2.0771 4.56014 4.61521V10.7501C3.74343 11.128 3.17684 11.9547 3.17684 12.9137V15.2964H1.5885C0.711196 15.2964 0 16.0076 0 16.8849C0 17.7622 0.711194 18.4734 1.5885 18.4734H1.58864V19.3875C1.58864 25.4627 6.5135 30.3875 12.5886 30.3875H19.1816C25.2568 30.3875 30.1816 25.4627 30.1816 19.3875V18.4734C31.0589 18.4734 31.77 17.7622 31.77 16.8849C31.77 16.0076 31.0588 15.2964 30.1815 15.2964H7.94234V12.9137C7.94234 11.9551 7.37626 11.1287 6.56014 10.7506V4.61521Z" fill="url(#paint0_linear_1005_7059)"/>
<defs>
<linearGradient id="paint0_linear_1005_7059" x1="3.22664" y1="38.4592" x2="-13.9693" y2="13.9047" gradientUnits="userSpaceOnUse">
<stop offset="0.298343" stop-color="#4552CB"/>
<stop offset="1" stop-color="#4596EA"/>
</linearGradient>
</defs>
</svg>
