<svg width="257" height="202" viewBox="0 0 257 202" fill="none" xmlns="http://www.w3.org/2000/svg">
<g clip-path="url(#clip0_702_5500)">
<path d="M233.937 184.201C229.011 189.476 223.365 194.03 217.168 197.73C217.026 197.817 216.881 197.899 216.736 197.984L206.704 189.104C206.809 189.006 206.926 188.897 207.051 188.776C214.527 181.677 251.638 132.047 254.111 119.961C253.941 120.968 256.343 160.454 233.937 184.201Z" fill="#F0F0F0"/>
<path d="M219.104 199.443C218.914 199.488 218.721 199.531 218.528 199.569L211.001 192.908C211.148 192.856 211.32 192.795 211.516 192.728C214.746 191.584 224.364 188.132 233.937 184.2C244.222 179.974 254.458 175.198 256.659 172.139C256.187 172.85 241.64 194.404 219.104 199.443Z" fill="#F0F0F0"/>
<path d="M233.798 52.8448H232.726V23.4808C232.726 21.249 232.287 19.0391 231.433 16.9771C230.578 14.9152 229.327 13.0417 227.748 11.4635C226.17 9.88538 224.297 8.63353 222.235 7.77945C220.173 6.92537 217.963 6.48578 215.731 6.48578H153.52C151.288 6.48577 149.078 6.92536 147.016 7.77943C144.954 8.63351 143.08 9.88536 141.502 11.4635C139.924 13.0416 138.672 14.9151 137.818 16.9771C136.964 19.039 136.525 21.249 136.525 23.4808V184.574C136.525 186.805 136.964 189.015 137.818 191.077C138.672 193.139 139.924 195.013 141.502 196.591C143.08 198.169 144.954 199.421 147.016 200.275C149.078 201.129 151.288 201.569 153.52 201.569H215.731C217.963 201.569 220.173 201.129 222.235 200.275C224.297 199.421 226.17 198.169 227.748 196.591C229.327 195.013 230.578 193.139 231.433 191.077C232.287 189.016 232.726 186.806 232.726 184.574V73.7465H233.798V52.8448Z" fill="#3F3D56"/>
<path d="M229.108 23.5976V184.456C229.108 186.123 228.78 187.773 228.142 189.313C227.504 190.853 226.569 192.252 225.39 193.43C224.212 194.609 222.812 195.543 221.272 196.181C219.732 196.818 218.082 197.146 216.415 197.145H153.904C152.237 197.145 150.587 196.817 149.048 196.18C147.508 195.542 146.109 194.607 144.931 193.429C143.753 192.251 142.818 190.852 142.18 189.312C141.543 187.773 141.215 186.122 141.215 184.456V23.5976C141.215 21.9312 141.543 20.2811 142.18 18.7415C142.818 17.202 143.753 15.8031 144.931 14.6247C146.109 13.4464 147.508 12.5118 149.048 11.8741C150.587 11.2365 152.237 10.9084 153.904 10.9085H161.49C161.117 11.8241 160.976 12.8172 161.077 13.8004C161.179 14.7836 161.52 15.7268 162.072 16.5471C162.623 17.3673 163.368 18.0395 164.24 18.5045C165.112 18.9695 166.086 19.213 167.074 19.2137H202.713C203.702 19.2146 204.676 18.9721 205.549 18.5076C206.423 18.043 207.168 17.3707 207.72 16.55C208.272 15.7293 208.613 14.7853 208.714 13.8015C208.815 12.8176 208.672 11.824 208.298 10.9085H216.415C218.082 10.9079 219.732 11.2356 221.272 11.8731C222.812 12.5105 224.212 13.4451 225.39 14.6234C226.569 15.8018 227.504 17.2008 228.142 18.7406C228.78 20.2804 229.108 21.9308 229.108 23.5976Z" fill="white"/>
<path d="M209.664 107.188H154.718C153.756 107.187 152.833 106.804 152.153 106.124C151.472 105.443 151.089 104.521 151.088 103.558V101.751C151.089 100.789 151.472 99.8664 152.153 99.1859C152.833 98.5054 153.756 98.1226 154.718 98.1215H209.664C210.626 98.1226 211.549 98.5054 212.229 99.1859C212.91 99.8664 213.292 100.789 213.294 101.751V103.558C213.292 104.521 212.91 105.443 212.229 106.124C211.549 106.804 210.626 107.187 209.664 107.188Z" fill="#F0F0F0"/>
<path d="M209.664 122.763H154.718C153.756 122.762 152.833 122.379 152.153 121.699C151.472 121.018 151.089 120.096 151.088 119.133V117.327C151.089 116.364 151.472 115.441 152.153 114.761C152.833 114.08 153.756 113.698 154.718 113.697H209.664C210.626 113.698 211.549 114.08 212.229 114.761C212.91 115.441 213.292 116.364 213.294 117.327V119.133C213.292 120.096 212.91 121.018 212.229 121.699C211.549 122.379 210.626 122.762 209.664 122.763Z" fill="#F0F0F0"/>
<path d="M212.412 103.705H157.467C156.456 103.704 155.488 103.302 154.773 102.587C154.059 101.873 153.657 100.904 153.655 99.8933V98.0865C153.657 97.076 154.059 96.1073 154.773 95.3927C155.488 94.6782 156.456 94.2763 157.467 94.2751H212.412C213.423 94.2763 214.391 94.6782 215.106 95.3927C215.82 96.1073 216.222 97.076 216.224 98.0865V99.8933C216.222 100.904 215.82 101.873 215.106 102.587C214.391 103.302 213.423 103.704 212.412 103.705ZM157.467 95.0011C156.649 95.002 155.865 95.3274 155.286 95.9058C154.708 96.4842 154.382 97.2685 154.381 98.0865V99.8933C154.382 100.711 154.708 101.496 155.286 102.074C155.865 102.652 156.649 102.978 157.467 102.979H212.412C213.23 102.978 214.014 102.652 214.593 102.074C215.171 101.496 215.497 100.711 215.498 99.8933V98.0865C215.497 97.2685 215.171 96.4842 214.593 95.9058C214.014 95.3274 213.23 95.002 212.412 95.0011H157.467Z" fill="#3F3D56"/>
<path d="M212.412 119.28H157.467C156.456 119.279 155.488 118.877 154.773 118.162C154.059 117.448 153.657 116.479 153.655 115.468V113.662C153.657 112.651 154.059 111.682 154.773 110.968C155.488 110.253 156.456 109.851 157.467 109.85H212.412C213.423 109.851 214.391 110.253 215.106 110.968C215.82 111.682 216.222 112.651 216.224 113.662V115.468C216.222 116.479 215.82 117.448 215.106 118.162C214.391 118.877 213.423 119.279 212.412 119.28ZM157.467 110.576C156.649 110.577 155.865 110.902 155.286 111.481C154.708 112.059 154.382 112.844 154.381 113.662V115.468C154.382 116.287 154.708 117.071 155.286 117.649C155.865 118.228 156.649 118.553 157.467 118.554H212.412C213.23 118.553 214.014 118.228 214.593 117.649C215.171 117.071 215.497 116.287 215.498 115.468V113.662C215.497 112.844 215.171 112.059 214.593 111.481C214.014 110.902 213.23 110.577 212.412 110.576H157.467Z" fill="#3F3D56"/>
<path d="M229.108 23.5976V58.5865C223.549 60.0492 217.728 60.217 212.093 59.077C206.459 57.9371 201.161 55.5198 196.607 52.011C192.053 48.5023 188.365 43.9957 185.826 38.8379C183.287 33.6802 181.965 28.0087 181.962 22.26C181.962 21.2338 182.003 20.2184 182.086 19.2137H202.713C203.702 19.2146 204.676 18.9721 205.549 18.5076C206.423 18.043 207.168 17.3707 207.72 16.55C208.272 15.7293 208.613 14.7853 208.714 13.8015C208.815 12.8176 208.672 11.824 208.298 10.9085H216.415C218.082 10.9079 219.732 11.2356 221.272 11.8731C222.812 12.5105 224.212 13.4451 225.39 14.6234C226.569 15.8018 227.504 17.2008 228.142 18.7406C228.78 20.2804 229.108 21.9308 229.108 23.5976Z" fill="#F0F0F0"/>
<path d="M172.8 194.96C172.8 195.698 172.773 196.426 172.713 197.145H153.904C152.237 197.145 150.587 196.817 149.048 196.18C147.508 195.542 146.109 194.607 144.931 193.429C143.753 192.251 142.818 190.852 142.18 189.312C141.543 187.773 141.215 186.122 141.215 184.456V167.25C145.157 166.737 149.164 167.071 152.968 168.228C156.771 169.386 160.285 171.341 163.273 173.963C166.262 176.585 168.658 179.814 170.3 183.434C171.943 187.055 172.795 190.984 172.8 194.96Z" fill="#BBC3CE"/>
<path d="M21.0977 164.77C21.6262 165.002 22.2254 165.016 22.7637 164.807C23.3021 164.598 23.7356 164.185 23.9694 163.657L40.9137 125.254C41.3015 124.375 41.42 123.401 41.2542 122.455C41.0884 121.509 40.6457 120.633 39.9822 119.938C39.3186 119.244 38.464 118.762 37.5264 118.553C36.5888 118.344 35.6103 118.418 34.7147 118.765H34.7146C33.6799 119.16 32.8141 119.902 32.2644 120.863C32.1769 121.015 32.0976 121.172 32.0268 121.333L15.0825 159.735C14.967 159.997 14.9042 160.279 14.8977 160.565C14.8911 160.851 14.941 161.135 15.0444 161.402C15.1478 161.669 15.3027 161.912 15.5003 162.119C15.6979 162.326 15.9343 162.492 16.196 162.607L21.0977 164.77Z" fill="white"/>
<path d="M40.2181 141.02L23.458 137.295L27.6063 126.321C28.313 123.639 29.9576 121.299 32.2418 119.725C34.526 118.152 37.2986 117.449 40.0566 117.745L40.2181 117.763L40.2181 141.02Z" fill="#2F2E41"/>
<path d="M74.0708 165.319C73.5779 165.318 73.0957 165.175 72.6827 164.906C72.2696 164.637 71.9433 164.254 71.7434 163.803L54.7991 125.4C54.2602 124.179 54.2101 122.797 54.6591 121.539C55.1081 120.281 56.022 119.243 57.2129 118.639C58.4037 118.035 59.7809 117.91 61.0611 118.29C62.3412 118.67 63.4271 119.526 64.0951 120.683V120.682C64.189 120.846 64.2742 121.014 64.3502 121.186L81.2945 159.589C81.5665 160.205 81.5825 160.905 81.3389 161.533C81.0953 162.161 80.612 162.667 79.9955 162.939L74.9276 165.175L74.925 165.17C74.651 165.268 74.362 165.319 74.0708 165.319Z" fill="white"/>
<path d="M50.6324 152.132C50.055 152.133 49.5014 152.362 49.0931 152.771C48.6848 153.179 48.4551 153.732 48.4545 154.31V198.963C48.4551 199.541 48.6848 200.094 49.0931 200.503C49.5014 200.911 50.055 201.141 50.6324 201.141H55.9901C56.5675 201.141 57.1211 200.911 57.5294 200.503C57.9377 200.094 58.1674 199.541 58.168 198.963V154.31C58.1674 153.732 57.9377 153.179 57.5294 152.771C57.1211 152.362 56.5675 152.133 55.9901 152.132H50.6324Z" fill="white"/>
<path d="M40.0358 152.132C39.4583 152.133 38.9047 152.362 38.4964 152.771C38.0881 153.179 37.8584 153.732 37.8578 154.31V198.963C37.8584 199.541 38.0881 200.094 38.4964 200.503C38.9047 200.911 39.4583 201.141 40.0358 201.141H45.3935C45.9709 201.141 46.5245 200.911 46.9328 200.503C47.3411 200.094 47.5708 199.541 47.5714 198.963V154.31C47.5708 153.732 47.3411 153.179 46.9328 152.771C46.5245 152.362 45.9709 152.133 45.3935 152.132H40.0358Z" fill="white"/>
<path d="M47.8529 105.35C58.0772 105.35 66.3656 97.0613 66.3656 86.837C66.3656 76.6127 58.0772 68.3242 47.8529 68.3242C37.6286 68.3242 29.3401 76.6127 29.3401 86.837C29.3401 97.0613 37.6286 105.35 47.8529 105.35Z" fill="white"/>
<path d="M54.0135 94.6083C55.2136 94.5749 56.7071 94.5333 57.8577 93.6928C58.2003 93.4323 58.4818 93.1 58.6824 92.7192C58.8831 92.3384 58.9981 91.9183 59.0193 91.4884C59.0401 91.1829 58.99 90.8767 58.8728 90.5938C58.7557 90.3108 58.5747 90.0588 58.344 89.8574C57.743 89.3496 56.8655 89.2305 55.9198 89.5085L56.8996 82.3482L56.1804 82.2496L55.0285 90.6675L55.6291 90.3918C56.3255 90.0724 57.2814 89.9099 57.8753 90.4119C58.0212 90.5431 58.1348 90.7062 58.2074 90.8885C58.28 91.0708 58.3095 91.2673 58.2938 91.4629C58.2762 91.7829 58.1898 92.0953 58.0407 92.3789C57.8915 92.6625 57.683 92.9107 57.4294 93.1065C56.534 93.7605 55.3435 93.8449 53.9933 93.8826L54.0135 94.6083Z" fill="#2F2E41"/>
<path d="M64.3667 82.9657H60.4566V83.6917H64.3667V82.9657Z" fill="#2F2E41"/>
<path d="M52.0249 82.9657H48.1149V83.6917H52.0249V82.9657Z" fill="#2F2E41"/>
<path d="M66.1962 165.545L59.5331 116.904C59.4616 116.382 59.2037 115.904 58.807 115.558C58.4103 115.212 57.9016 115.021 57.3752 115.021H52.3457C52.3667 114.901 52.3776 114.78 52.3784 114.658V112.843C52.3783 112.266 52.1489 111.712 51.7404 111.303C51.332 110.895 50.778 110.665 50.2004 110.665H45.8445C45.2668 110.665 44.7129 110.895 44.3044 111.303C43.896 111.712 43.6665 112.266 43.6665 112.843V114.658C43.6672 114.78 43.6782 114.901 43.6991 115.021H38.6697C38.1432 115.021 37.6346 115.212 37.2379 115.558C36.8412 115.904 36.5832 116.382 36.5117 116.904L29.8486 165.545C29.8064 165.853 29.8307 166.166 29.9198 166.464C30.0089 166.762 30.1607 167.038 30.3651 167.272C30.5696 167.506 30.8218 167.694 31.1049 167.823C31.388 167.952 31.6954 168.018 32.0063 168.018H64.0384C64.3494 168.018 64.6568 167.952 64.9399 167.823C65.223 167.694 65.4752 167.506 65.6797 167.272C65.8841 167.038 66.036 166.762 66.1251 166.464C66.2142 166.166 66.2384 165.853 66.1962 165.545Z" fill="#2F2E41"/>
<path d="M55.8268 141.02V117.763L55.9883 117.745C58.7497 117.449 61.5253 118.154 63.811 119.732C66.0967 121.309 67.7408 123.654 68.4446 126.34L72.5869 137.295L55.8268 141.02Z" fill="#2F2E41"/>
<path d="M46.9206 105.927L34.1158 100.957C32.022 100.145 29.9164 99.3567 27.8337 98.516C26.9415 98.2051 26.1197 97.7208 25.4156 97.0908C24.8025 96.4419 24.3847 95.6333 24.21 94.7579C23.7659 92.8807 23.8462 90.8284 23.8779 88.9128C23.9025 86.8171 24.0749 84.7258 24.394 82.6545C24.9532 78.7621 26.2663 75.0161 28.26 71.6265C31.851 65.7346 38.038 61.3017 45.1548 61.6554C48.4496 61.8192 51.7633 63.0015 54.2113 65.2542C54.4666 65.5593 54.7531 65.837 55.0661 66.0827C55.2837 66.1643 55.5205 66.1802 55.747 66.1284C56.0457 66.1092 56.3447 66.0945 56.6439 66.0844C57.6821 66.0406 58.7222 66.0842 59.7531 66.2148C61.6319 66.4178 63.4125 67.1571 64.8824 68.3446C66.1057 69.397 67.1011 70.8826 67.2035 72.5335C67.253 73.2914 67.1277 74.0506 66.8373 74.7523C66.5469 75.4541 66.0991 76.0798 65.5286 76.5811C64.0009 77.8687 61.8213 77.4161 59.9888 77.319L53.2757 76.9634L49.8743 76.7832C49.174 76.7461 49.176 77.8352 49.8743 77.8722L58.9147 78.3511C60.3675 78.4281 61.8647 78.6167 63.3187 78.5296C64.4359 78.479 65.5026 78.0499 66.3436 77.3127C67.1116 76.6072 67.6838 75.7146 68.0042 74.7221C68.3246 73.7296 68.3824 72.671 68.1719 71.6496C67.7058 69.4217 66.0477 67.5787 64.1039 66.4823C61.4591 64.9905 58.3004 64.8475 55.3409 65.0681L55.726 65.2275C52.3783 61.6346 47.2506 60.1175 42.4366 60.6484C37.3539 61.209 32.8332 64.0446 29.5852 67.922C25.9638 72.245 23.9903 77.6355 23.2231 83.1786C22.8239 86.1713 22.6924 89.1937 22.8304 92.2098C22.8247 93.5399 23.0522 94.8608 23.5027 96.1124C24.0167 97.3304 24.946 98.3268 26.1254 98.9242C27.4775 99.5769 28.8676 100.148 30.2882 100.634L35.0057 102.465L44.2724 106.062L46.6311 106.978C47.2848 107.231 47.568 106.179 46.9206 105.927Z" fill="#2F2E41"/>
<path d="M26.7873 68.9208C25.6745 68.9208 24.5867 68.5909 23.6614 67.9726C22.7361 67.3544 22.015 66.4757 21.5892 65.4476C21.1633 64.4195 21.0519 63.2882 21.269 62.1967C21.4861 61.1053 22.0219 60.1028 22.8088 59.3159C23.5957 58.5291 24.5982 57.9932 25.6896 57.7761C26.781 57.559 27.9123 57.6704 28.9404 58.0963C29.9685 58.5221 30.8472 59.2433 31.4655 60.1685C32.0837 61.0938 32.4137 62.1816 32.4137 63.2944C32.412 64.7861 31.8187 66.2162 30.7639 67.271C29.7091 68.3258 28.279 68.9192 26.7873 68.9208ZM26.7873 58.757C25.8899 58.757 25.0126 59.0231 24.2664 59.5217C23.5202 60.0202 22.9387 60.7289 22.5952 61.558C22.2518 62.3871 22.162 63.2994 22.337 64.1796C22.5121 65.0598 22.9443 65.8683 23.5788 66.5029C24.2134 67.1374 25.0219 67.5696 25.9021 67.7447C26.7822 67.9198 27.6946 67.8299 28.5237 67.4865C29.3528 67.143 30.0614 66.5615 30.56 65.8153C31.0586 65.0691 31.3247 64.1918 31.3247 63.2944C31.3234 62.0914 30.8449 60.9381 29.9942 60.0874C29.1436 59.2368 27.9903 58.7583 26.7873 58.757Z" fill="#2F2E41"/>
<path d="M120.841 103.788L108.663 94.4741L99.3483 106.652L111.526 115.966L120.841 103.788Z" fill="white"/>
<path d="M52.0154 20.6426C53.9395 20.641 55.8373 21.0901 57.5567 21.9538C59.2761 22.8175 60.7694 24.0719 61.9169 25.6164L69.0279 16.3187L47.6915 0L31.3729 21.3364L40.5688 28.3698C41.4891 26.0874 43.0706 24.1323 45.1102 22.7554C47.1498 21.3785 49.5545 20.6427 52.0154 20.6426Z" fill="white"/>
<path d="M256.637 201.777H0.362994C0.266722 201.777 0.174393 201.739 0.106318 201.67C0.0382437 201.602 0 201.51 0 201.414C0 201.318 0.0382437 201.225 0.106318 201.157C0.174393 201.089 0.266722 201.051 0.362994 201.051H256.637C256.733 201.051 256.826 201.089 256.894 201.157C256.962 201.225 257 201.318 257 201.414C257 201.51 256.962 201.602 256.894 201.67C256.826 201.739 256.733 201.777 256.637 201.777Z" fill="#3F3D56"/>
<path d="M194.088 141.545H168.003C167.041 141.544 166.118 141.161 165.437 140.481C164.757 139.8 164.374 138.877 164.373 137.915V136.108C164.374 135.146 164.757 134.223 165.437 133.543C166.118 132.862 167.041 132.479 168.003 132.478H194.088C195.051 132.479 195.973 132.862 196.654 133.543C197.335 134.223 197.717 135.146 197.718 136.108V137.915C197.717 138.877 197.335 139.8 196.654 140.481C195.973 141.161 195.051 141.544 194.088 141.545Z" fill="#BBC3CE"/>
<path d="M196.837 138.062H170.751C169.741 138.061 168.772 137.659 168.058 136.944C167.343 136.23 166.941 135.261 166.94 134.25V132.443C166.941 131.433 167.343 130.464 168.058 129.75C168.772 129.035 169.741 128.633 170.751 128.632H196.837C197.848 128.633 198.816 129.035 199.531 129.75C200.245 130.464 200.647 131.433 200.648 132.443V134.25C200.647 135.261 200.245 136.23 199.531 136.944C198.816 137.659 197.848 138.061 196.837 138.062ZM170.751 129.358C169.933 129.359 169.149 129.684 168.571 130.263C167.992 130.841 167.667 131.625 167.666 132.443V134.25C167.667 135.068 167.992 135.853 168.571 136.431C169.149 137.009 169.933 137.335 170.751 137.336H196.837C197.655 137.335 198.439 137.009 199.018 136.431C199.596 135.853 199.922 135.068 199.922 134.25V132.443C199.922 131.625 199.596 130.841 199.018 130.263C198.439 129.684 197.655 129.359 196.837 129.358H170.751Z" fill="#3F3D56"/>
</g>
<defs>
<clipPath id="clip0_702_5500">
<rect width="257" height="201.777" fill="white"/>
</clipPath>
</defs>
</svg>
