<svg width="32" height="31" viewBox="0 0 32 31" fill="none" xmlns="http://www.w3.org/2000/svg">
<path d="M9.26691 10.9331V17.3106H20.5562L22.9329 14.9915L20.5562 10.9331H9.26691Z" fill="#ED6D4E"/>
<path fill-rule="evenodd" clip-rule="evenodd" d="M3.80029 15.4599L15.6442 3.64453L27.4881 15.4599V28.9766C27.4881 30.0811 26.5926 30.9766 25.4881 30.9766H5.80029C4.69572 30.9766 3.80029 30.0811 3.80029 28.9766V15.4599ZM20.819 14.9416C20.7982 14.9156 20.8148 14.8951 20.8148 14.8951C21.6057 13.9287 20.5712 12.7552 19.6919 12.7552C19.1065 12.7552 18.5886 13.1169 18.2724 13.6718H16.1416C15.973 13.6718 15.8628 13.6736 15.8628 13.6736H15.6442L15.5755 13.6735H15.5754C15.4403 13.6734 15.3932 13.6733 15.1469 13.6718H13.0161C12.6999 13.1171 12.1819 12.7552 11.5966 12.7552C10.7173 12.7552 9.68282 13.9287 10.4735 14.8951C10.4735 14.8951 10.4901 14.9154 10.4693 14.9416C9.68267 15.9327 10.6335 17.1283 11.5965 17.1283C12.1841 17.1283 12.7037 16.7636 13.0196 16.2052H18.2686C18.5845 16.7636 19.104 17.1283 19.6917 17.1283C20.6549 17.1282 21.6057 15.9327 20.819 14.9416ZM15.6443 19.1324C13.6316 19.1324 12 20.764 12 22.7767V29.1542H19.2886V22.7767C19.2886 20.764 17.657 19.1324 15.6443 19.1324Z" fill="#FFCF6F"/>
<path fill-rule="evenodd" clip-rule="evenodd" d="M16.9394 0.581159C16.9245 0.56513 16.9092 0.549304 16.8936 0.533691C16.182 -0.177897 15.0283 -0.177897 14.3167 0.533691L0.533691 14.3167C-0.177897 15.0283 -0.177897 16.182 0.533691 16.8936C1.24528 17.6052 2.39899 17.6052 3.11058 16.8936L15.6116 4.39259L28.0194 16.8004C28.731 17.512 29.8847 17.512 30.5963 16.8004C31.3079 16.0888 31.3079 14.9351 30.5963 14.2235L17.0843 0.711493C17.0378 0.665012 16.9894 0.621567 16.9394 0.581159Z" fill="url(#paint0_linear_1005_7071)"/>
<defs>
<linearGradient id="paint0_linear_1005_7071" x1="3.16164" y1="22.0564" x2="-4.20385" y2="4.08696" gradientUnits="userSpaceOnUse">
<stop offset="0.298343" stop-color="#4552CB"/>
<stop offset="1" stop-color="#4596EA"/>
</linearGradient>
</defs>
</svg>
