<svg width="281" height="191" viewBox="0 0 281 191" fill="none" xmlns="http://www.w3.org/2000/svg">
<g clip-path="url(#clip0_909_7548)">
<path d="M0 78.4082C0 55.162 18.8447 0 42.0909 0C65.3371 0 84.1818 55.162 84.1818 78.4082C84.1786 89.5693 79.7426 100.272 71.8494 108.163C63.9562 116.054 53.252 120.487 42.0909 120.487C30.9298 120.487 20.2256 116.054 12.3324 108.163C4.43918 100.272 0.00320049 89.5693 0 78.4082Z" fill="#6C63FF"/>
<path d="M42.0909 180.811C41.9991 180.811 41.9111 180.774 41.8462 180.709C41.7813 180.644 41.7448 180.556 41.7448 180.464V35.3488C41.7448 35.2571 41.7813 35.169 41.8462 35.1041C41.9111 35.0392 41.9991 35.0027 42.0909 35.0027C42.1827 35.0027 42.2707 35.0392 42.3356 35.1041C42.4005 35.169 42.437 35.2571 42.437 35.3488V180.464C42.437 180.556 42.4005 180.644 42.3356 180.709C42.2707 180.774 42.1827 180.811 42.0909 180.811Z" fill="#3F3D56"/>
<path d="M42.0909 63.3644C42.0454 63.3644 42.0004 63.3555 41.9584 63.3381C41.9164 63.3207 41.8783 63.2952 41.8462 63.263L25.1866 46.6036C25.1541 46.5715 25.1283 46.5334 25.1106 46.4913C25.0929 46.4492 25.0837 46.404 25.0836 46.3584C25.0834 46.3127 25.0923 46.2675 25.1097 46.2253C25.1271 46.1831 25.1527 46.1447 25.185 46.1125C25.2173 46.0802 25.2556 46.0546 25.2978 46.0372C25.34 46.0198 25.3853 46.0109 25.4309 46.0111C25.4766 46.0113 25.5217 46.0205 25.5638 46.0381C25.6059 46.0558 25.6441 46.0817 25.6761 46.1142L42.3356 62.7736C42.384 62.822 42.417 62.8836 42.4303 62.9508C42.4437 63.0179 42.4368 63.0875 42.4106 63.1507C42.3844 63.214 42.3401 63.268 42.2832 63.306C42.2263 63.3441 42.1593 63.3644 42.0909 63.3644V63.3644Z" fill="#3F3D56"/>
<path d="M42.0909 92.2052C42.0225 92.2052 41.9556 92.1849 41.8987 92.1469C41.8418 92.1089 41.7974 92.0548 41.7712 91.9916C41.745 91.9283 41.7382 91.8588 41.7515 91.7916C41.7649 91.7245 41.7978 91.6628 41.8462 91.6144L69.7455 63.715C69.7776 63.6825 69.8158 63.6567 69.8579 63.639C69.8999 63.6213 69.9451 63.6122 69.9907 63.612C70.0364 63.6119 70.0816 63.6207 70.1238 63.6381C70.166 63.6555 70.2043 63.6811 70.2366 63.7133C70.2688 63.7456 70.2944 63.784 70.3118 63.8261C70.3292 63.8683 70.3381 63.9135 70.3379 63.9592C70.3378 64.0048 70.3286 64.05 70.311 64.092C70.2933 64.1341 70.2675 64.1723 70.235 64.2044L42.3357 92.1038C42.3036 92.136 42.2654 92.1615 42.2234 92.1789C42.1814 92.1963 42.1364 92.2053 42.0909 92.2052Z" fill="#3F3D56"/>
<path d="M17.0516 189.877C17.1118 189.923 17.175 189.965 17.2358 190.011H68.8374C69.8485 185.914 70.2055 181.813 68.6952 178.251C66.5435 173.177 60.1748 170.009 55.1118 172.188C53.9122 172.718 52.8672 173.545 52.0752 174.591C50.0966 171.049 46.5473 168.379 42.4505 168.381C37.3179 168.385 33.0504 172.582 31.6578 177.431C29.4152 173.646 24.9856 171 20.6561 172.138C13.4145 174.041 11.1272 185.298 17.0516 189.877Z" fill="#F2F2F2"/>
<path d="M220.468 109.815C220.468 93.1113 234.018 53.473 250.734 53.473C267.449 53.473 281 93.1113 281 109.815C280.995 117.839 277.803 125.532 272.128 131.204C266.453 136.875 258.757 140.061 250.734 140.061C242.71 140.061 235.015 136.875 229.34 131.204C223.664 125.532 220.473 117.839 220.468 109.815Z" fill="#E6E6E6"/>
<path d="M250.734 183.4C250.701 183.4 250.669 183.393 250.639 183.381C250.608 183.368 250.581 183.35 250.558 183.327C250.535 183.304 250.517 183.276 250.504 183.246C250.491 183.216 250.485 183.184 250.485 183.151V78.8739C250.485 78.808 250.512 78.745 250.558 78.6985C250.605 78.652 250.668 78.6259 250.734 78.6259C250.8 78.6259 250.863 78.652 250.91 78.6985C250.956 78.745 250.983 78.808 250.983 78.8739V183.151C250.983 183.184 250.976 183.216 250.964 183.246C250.951 183.276 250.933 183.304 250.91 183.327C250.887 183.35 250.859 183.368 250.829 183.381C250.799 183.393 250.767 183.4 250.734 183.4Z" fill="#3F3D56"/>
<path d="M250.734 99.0053C250.701 99.0054 250.669 98.9989 250.639 98.9864C250.608 98.9739 250.581 98.9556 250.558 98.9325L238.579 86.9613C238.532 86.9146 238.506 86.8513 238.506 86.7854C238.506 86.7194 238.532 86.6561 238.579 86.6095C238.625 86.5628 238.689 86.5367 238.755 86.5367C238.821 86.5367 238.884 86.5629 238.931 86.6096L250.91 98.5808C250.945 98.6156 250.968 98.6599 250.978 98.7081C250.988 98.7564 250.983 98.8064 250.964 98.8518C250.945 98.8973 250.913 98.9361 250.872 98.9634C250.831 98.9908 250.783 99.0053 250.734 99.0053Z" fill="#3F3D56"/>
<path d="M250.734 119.73C250.685 119.73 250.637 119.715 250.596 119.688C250.555 119.661 250.523 119.622 250.504 119.576C250.485 119.531 250.48 119.481 250.49 119.433C250.499 119.384 250.523 119.34 250.558 119.305L270.62 99.2571C270.666 99.2105 270.729 99.1842 270.795 99.1842C270.861 99.1842 270.925 99.2104 270.971 99.257C271.018 99.3036 271.044 99.3669 271.044 99.4329C271.044 99.4989 271.018 99.5622 270.971 99.6088L250.91 119.657C250.887 119.68 250.859 119.698 250.829 119.711C250.799 119.723 250.767 119.73 250.734 119.73Z" fill="#3F3D56"/>
<path d="M232.729 189.915C232.772 189.948 232.818 189.978 232.861 190.011H269.966C270.693 187.067 270.95 184.12 269.864 181.561C268.317 177.914 263.737 175.638 260.097 177.204C259.234 177.585 258.483 178.179 257.913 178.93C256.49 176.385 253.938 174.466 250.992 174.468C247.302 174.471 244.233 177.487 243.232 180.971C241.619 178.251 238.434 176.35 235.321 177.168C230.114 178.536 228.469 186.625 232.729 189.915Z" fill="#F2F2F2"/>
<path d="M146.231 119.644C148.785 124.697 146.116 131.815 140.539 133.414C138.97 133.863 137.192 133.816 135.811 132.869C134.67 132.086 133.847 130.703 133.956 129.295C134.165 126.585 137.615 125.578 139.812 126.453C142.787 127.637 144.119 131.127 144.535 134.057C145.044 137.639 144.345 141.34 142.946 144.649C140.144 151.274 134.598 156.436 129.1 160.867C123.459 165.406 117.276 169.229 110.694 172.247C109.868 172.626 109.035 172.992 108.197 173.346C108.079 173.416 107.993 173.53 107.958 173.663C107.923 173.796 107.942 173.937 108.011 174.056C108.083 174.172 108.197 174.257 108.329 174.291C108.461 174.326 108.602 174.308 108.721 174.242C115.961 171.178 122.762 167.165 128.944 162.309C134.929 157.612 140.968 152.069 143.953 144.91C145.441 141.342 146.111 137.4 145.503 133.559C144.99 130.326 143.382 126.748 140.138 125.471C137.579 124.463 134.012 125.525 133.102 128.305C132.602 129.834 133.12 131.487 134.109 132.695C134.651 133.333 135.325 133.844 136.084 134.196C136.843 134.547 137.669 134.728 138.505 134.728C141.843 134.797 144.897 132.656 146.574 129.876C148.153 127.266 148.633 124.137 147.91 121.173C147.724 120.463 147.461 119.774 147.127 119.12C146.826 118.524 145.93 119.049 146.231 119.644Z" fill="#CCCCCC"/>
<path d="M203.724 182.502L199.993 183.819L193.138 170.055L198.645 168.111L203.724 182.502Z" fill="#A0616A"/>
<path d="M196.952 183.694L204.147 181.154L205.747 185.685L194.02 189.824C193.81 189.229 193.719 188.598 193.753 187.968C193.787 187.338 193.944 186.721 194.216 186.152C194.489 185.582 194.87 185.072 195.34 184.651C195.809 184.229 196.357 183.904 196.952 183.694Z" fill="#2F2E41"/>
<path d="M163.209 186.146L159.252 186.145L157.371 170.884L163.211 170.884L163.209 186.146Z" fill="#A0616A"/>
<path d="M156.426 185.015H164.057V189.819H151.621C151.621 189.188 151.746 188.564 151.987 187.981C152.229 187.398 152.582 186.868 153.029 186.422C153.475 185.976 154.004 185.622 154.587 185.38C155.17 185.139 155.795 185.015 156.426 185.015Z" fill="#2F2E41"/>
<path d="M162.843 181.664C162.712 181.664 162.582 181.648 162.456 181.615L156.62 180.136C156.264 180.046 155.951 179.834 155.737 179.536C155.523 179.237 155.421 178.873 155.45 178.507L161.026 105.739L161.199 105.752L161.026 105.739C161.145 104.229 161.808 102.814 162.892 101.757C163.975 100.7 165.406 100.072 166.918 99.99L184.554 99.0748L187.519 144.741L205.107 176.417C205.216 176.614 205.282 176.833 205.298 177.058C205.315 177.283 205.282 177.51 205.203 177.721C205.123 177.932 204.999 178.124 204.838 178.282C204.677 178.441 204.484 178.562 204.271 178.639L196.17 181.546C195.804 181.679 195.4 181.67 195.041 181.519C194.681 181.368 194.391 181.087 194.23 180.733L173.547 135.942C173.501 135.842 173.424 135.759 173.328 135.705C173.232 135.652 173.121 135.631 173.011 135.644C172.902 135.658 172.8 135.706 172.72 135.782C172.64 135.857 172.586 135.957 172.566 136.065L164.37 180.389C164.304 180.746 164.115 181.069 163.836 181.301C163.557 181.534 163.206 181.662 162.843 181.664Z" fill="#2F2E41"/>
<path d="M143.492 117.051C143.68 116.615 143.961 116.226 144.315 115.91C144.67 115.595 145.089 115.361 145.543 115.225C145.998 115.089 146.477 115.055 146.946 115.124C147.416 115.193 147.864 115.365 148.26 115.626L154.405 111.474L157.839 114.593L149.079 120.334C148.596 120.971 147.896 121.407 147.112 121.562C146.329 121.717 145.516 121.579 144.827 121.174C144.138 120.769 143.622 120.126 143.376 119.366C143.13 118.606 143.171 117.782 143.492 117.051L143.492 117.051Z" fill="#A0616A"/>
<path d="M176.899 71.3518C181.594 71.3518 185.399 67.5459 185.399 62.8512C185.399 58.1564 181.594 54.3505 176.899 54.3505C172.204 54.3505 168.398 58.1564 168.398 62.8512C168.398 67.5459 172.204 71.3518 176.899 71.3518Z" fill="#A0616A"/>
<path d="M165.333 101.91C164.859 101.909 164.391 101.804 163.963 101.602C163.535 101.4 163.156 101.107 162.854 100.742C162.552 100.377 162.333 99.9507 162.215 99.4923C162.096 99.0338 162.079 98.5548 162.166 98.0893L163.65 90.1585C162.066 84.4079 170.134 79.338 170.479 79.1244L175.512 77.1943L175.574 77.3559L175.512 77.1943C176.458 76.8321 177.478 76.7098 178.483 76.8383C179.488 76.9668 180.445 77.3421 181.269 77.9307C182.094 78.5192 182.76 79.3028 183.207 80.2113C183.655 81.1199 183.871 82.1251 183.835 83.1374L183.225 100.578L165.58 101.901C165.497 101.907 165.415 101.91 165.333 101.91Z" fill="#6C63FF"/>
<path d="M172.697 156.292C168.821 156.246 164.953 155.937 161.12 155.366L160.957 155.341L160.974 155.178C161.279 152.199 168.466 82.1643 170.021 77.2276C170.423 75.9519 171.673 74.9492 173.737 74.2477C180.223 72.0431 187.507 75.3124 190.321 81.6909C191.355 84.0445 191.865 86.5949 191.814 89.1651L190.506 150.819L190.368 150.845C190.332 150.852 186.709 151.56 181.926 154.651C179.979 155.909 176.37 156.292 172.697 156.292Z" fill="#3F3D56"/>
<path opacity="0.05098" d="M182.4 89.1968C186.897 96.8309 184.628 100.896 180.374 108.686C178.015 113.007 170.735 118.351 167.325 114.916C163.915 111.481 166.61 106.811 168.091 102.068C169.572 97.3248 172.757 93.4194 176.082 89.8912C178.452 87.3758 183.347 89.4409 182.4 89.1968Z" fill="black"/>
<path d="M153.161 119.067C152.818 119.066 152.485 118.953 152.213 118.744C151.941 118.535 151.746 118.242 151.657 117.911L150.578 113.875C150.497 113.569 150.511 113.246 150.617 112.948C150.724 112.65 150.919 112.391 151.176 112.206L168.649 99.7045L171.004 86.3298C171.163 85.4261 171.509 84.5655 172.019 83.8026C172.528 83.0397 173.192 82.3914 173.966 81.8988C174.74 81.4063 175.608 81.0803 176.515 80.9416C177.422 80.803 178.348 80.8547 179.234 81.0935C180.12 81.3322 180.947 81.7529 181.661 82.3286C182.376 82.9043 182.963 83.6224 183.385 84.4373C183.806 85.2522 184.054 86.146 184.111 87.0618C184.169 87.9776 184.035 88.8953 183.719 89.7566L178.742 103.297C177.769 105.957 175.805 108.137 173.261 109.38L153.847 118.907C153.634 119.012 153.399 119.066 153.161 119.067Z" fill="#3F3D56"/>
<path d="M173.31 59.624C172.901 60.4579 172.202 61.1137 171.343 61.4678C170.485 61.822 169.527 61.8501 168.649 61.547C167.771 61.2438 167.035 60.6302 166.578 59.8218C166.121 59.0133 165.976 58.0658 166.169 57.1575C166.53 55.4621 167.401 53.9176 168.665 52.7316C169.929 51.5456 171.526 50.7749 173.241 50.523C174.956 50.271 176.707 50.55 178.258 51.3224C179.81 52.0947 181.088 53.3235 181.922 54.8436C184.612 52.9623 188.835 53.9125 190.46 56.7648C192.085 59.617 190.749 63.7343 187.759 65.0894C186.271 65.7637 186.382 68.3674 187.922 68.913C188.436 69.0951 188.88 69.4327 189.194 69.8789C189.507 70.3252 189.674 70.8579 189.671 71.4032C189.668 71.9486 189.496 72.4795 189.177 72.9223C188.859 73.3651 188.411 73.6979 187.895 73.8745C185.958 74.5375 183.983 75.2075 181.936 75.2593C179.889 75.3111 177.721 74.6488 176.429 73.0601C175.137 71.4715 175.047 68.864 176.571 67.4964C177.344 66.7691 177.859 65.8096 178.037 64.7633C178.216 63.717 178.048 62.6411 177.56 61.6986C176.543 59.8435 173.823 58.5771 173.31 59.624Z" fill="#2F2E41"/>
<path d="M118.409 188.166C118.013 188.166 117.624 188.061 117.282 187.862C116.94 187.663 116.656 187.377 116.459 187.034C116.263 186.69 116.16 186.301 116.162 185.905C116.165 185.51 116.271 185.121 116.471 184.78V184.78L119.62 179.404L123.502 181.678L120.354 187.054C120.155 187.393 119.871 187.674 119.529 187.869C119.188 188.064 118.802 188.167 118.409 188.166Z" fill="#6C63FF"/>
<path d="M130.764 175.88C132.293 175.88 133.533 174.64 133.533 173.111C133.533 171.582 132.293 170.342 130.764 170.342C129.235 170.342 127.995 171.582 127.995 173.111C127.995 174.64 129.235 175.88 130.764 175.88Z" fill="#6C63FF"/>
<path d="M106.226 188.166C105.831 188.166 105.442 188.061 105.1 187.862C104.757 187.663 104.474 187.377 104.277 187.034C104.081 186.69 103.978 186.301 103.98 185.905C103.982 185.509 104.089 185.121 104.289 184.78L107.438 179.404L111.32 181.678L108.171 187.054C107.973 187.393 107.688 187.674 107.347 187.869C107.006 188.064 106.62 188.167 106.226 188.166Z" fill="#6C63FF"/>
<path d="M124.354 184.573H110.403C108.505 184.571 106.684 183.816 105.342 182.473C103.999 181.131 103.244 179.31 103.242 177.412V175.292C103.243 174.633 103.505 174.001 103.971 173.535C104.437 173.069 105.07 172.806 105.729 172.805H124.354C125.915 172.805 127.411 173.425 128.515 174.529C129.618 175.632 130.238 177.129 130.238 178.689C130.238 180.25 129.618 181.746 128.515 182.85C127.411 183.953 125.915 184.573 124.354 184.573Z" fill="#3F3D56"/>
<path d="M123.693 189.997C123.097 189.996 122.525 189.759 122.103 189.337C121.681 188.915 121.444 188.344 121.444 187.747V181.517H125.943V187.747C125.942 188.344 125.705 188.915 125.283 189.337C124.861 189.759 124.29 189.996 123.693 189.997Z" fill="#3F3D56"/>
<path d="M110.637 189.997C110.041 189.996 109.469 189.759 109.047 189.337C108.626 188.915 108.388 188.344 108.388 187.747V181.517H112.887V187.747C112.886 188.344 112.649 188.915 112.227 189.337C111.806 189.759 111.234 189.996 110.637 189.997Z" fill="#3F3D56"/>
<path d="M107.522 164.372H101.985V157.103C101.985 156.369 102.276 155.665 102.796 155.146C103.315 154.626 104.019 154.335 104.754 154.335C105.488 154.335 106.192 154.626 106.711 155.146C107.231 155.665 107.522 156.369 107.522 157.103V164.372Z" fill="#6C63FF"/>
<path d="M107.083 174.669H97.9246C97.3953 174.668 96.8878 174.458 96.5135 174.083C96.1392 173.709 95.9286 173.201 95.928 172.672V167.875C95.9299 166.189 96.6004 164.573 97.7924 163.381C98.9843 162.189 100.6 161.519 102.286 161.517H103.747C105.161 161.518 106.517 162.081 107.516 163.081C108.516 164.08 109.078 165.436 109.08 166.849V172.672C109.079 173.202 108.869 173.709 108.494 174.083C108.12 174.458 107.613 174.668 107.083 174.669Z" fill="#3F3D56"/>
<path d="M107.523 164.372H103.715V156.238C103.715 155.733 103.916 155.249 104.273 154.892C104.63 154.535 105.114 154.335 105.619 154.335C106.124 154.335 106.608 154.535 106.965 154.892C107.322 155.249 107.523 155.733 107.523 156.238V164.372Z" fill="#3F3D56"/>
<path d="M106.574 174.609H96.5366C95.8023 174.609 95.098 174.317 94.5787 173.798C94.0595 173.279 93.7678 172.575 93.7678 171.84C93.7678 171.106 94.0595 170.402 94.5787 169.882C95.098 169.363 95.8023 169.071 96.5366 169.071H106.574V174.609Z" fill="#3F3D56"/>
<path d="M94.027 172.958C94.3854 172.958 94.6759 172.435 94.6759 171.79C94.6759 171.145 94.3854 170.622 94.027 170.622C93.6687 170.622 93.3782 171.145 93.3782 171.79C93.3782 172.435 93.6687 172.958 94.027 172.958Z" fill="#6C63FF"/>
<path d="M218.182 190.011H86.317C86.2252 190.011 86.1372 189.974 86.0723 189.909C86.0074 189.844 85.9709 189.756 85.9709 189.665C85.9709 189.573 86.0074 189.485 86.0723 189.42C86.1372 189.355 86.2252 189.318 86.317 189.318H218.182C218.274 189.318 218.362 189.355 218.427 189.42C218.492 189.485 218.528 189.573 218.528 189.665C218.528 189.756 218.492 189.844 218.427 189.909C218.362 189.974 218.274 190.011 218.182 190.011Z" fill="#3F3D56"/>
</g>
<defs>
<clipPath id="clip0_909_7548">
<rect width="281" height="190.011" fill="white"/>
</clipPath>
</defs>
</svg>
