<svg width="52" height="52" viewBox="0 0 52 52" fill="none" xmlns="http://www.w3.org/2000/svg">
<path d="M24.3632 21.2219C24.107 21.2854 23.958 21.3412 23.7574 21.4188C22.9748 21.7199 22.2998 22.2281 21.7235 22.9332C21.4878 23.2212 21.2674 23.5575 21.0442 23.9416C20.8214 24.3251 20.6062 24.7448 20.3897 25.2331C20.1632 25.7461 19.9903 26.173 19.5408 27.3364C18.9593 28.8411 18.6408 29.5751 18.2357 30.3619C17.9426 30.9312 17.6509 31.4214 17.2761 31.9584C16.4503 33.1411 15.8889 34.3721 15.5998 35.641C15.3517 36.7335 15.3162 37.7694 15.4975 38.7783C15.5298 38.9608 15.6417 39.4112 15.6978 39.582C16.0521 40.6795 16.6429 41.5837 17.4977 42.2761C18.1897 42.8358 19.0639 43.254 19.8525 43.3984C21.0089 43.6107 22.163 43.3896 23.6434 42.6976C24.1029 42.4839 24.6749 42.1895 25.5716 41.6833C26.8468 40.9661 27.5626 40.6158 28.2479 40.3612C29.2272 39.9969 30.3462 39.8062 31.7482 39.7787C32.173 39.7694 32.5629 39.7675 33.4751 39.7912C34.5355 39.8188 34.944 39.8285 35.446 39.8035C35.788 39.7853 36.1825 39.7351 36.4401 39.6917C36.5091 39.6802 36.5839 39.6694 36.6016 39.668C36.6185 39.6647 36.823 39.6288 37.0507 39.5702C37.4948 39.4575 37.5849 39.4164 37.8796 39.2879C38.7671 38.9003 39.5666 38.2331 40.1898 37.354C40.284 37.2229 40.5162 36.8365 40.5891 36.6897C41.0347 35.805 41.2273 34.8457 41.1468 33.8522C41.1198 33.5049 41.0786 33.2659 40.9874 32.8997C40.9199 32.6277 40.8596 32.463 40.7755 32.2353C40.287 30.9119 39.3826 29.6921 38.097 28.6475C37.4801 28.1463 36.8006 27.7066 36.0051 27.292C35.2197 26.882 34.6536 26.5157 33.9737 25.9983C33.3369 25.5126 32.8389 25.0761 31.8284 24.1223C30.9825 23.3231 30.6673 23.022 30.3046 22.7174C29.2894 21.87 28.4048 21.385 27.4583 21.1534C26.5275 20.9255 25.4705 20.9466 24.3632 21.2219Z" fill="white"/>
<path d="M21.2856 14.0723C20.6759 12.5807 19.6816 11.3526 18.4604 10.5652C17.7729 10.1231 17.0104 9.84957 16.2843 9.79574C15.5178 9.73876 14.7665 9.91906 14.1407 10.3148C13.7708 10.5492 13.4728 10.8296 13.1886 11.2079C13.1028 11.3243 12.8566 11.7331 12.79 11.8711C12.3368 12.8148 12.184 13.9602 12.3274 15.1596C12.3705 15.5122 12.3916 15.6004 12.5096 16.0751C12.6311 16.5615 12.6607 16.6972 12.7995 17.0564C13.5749 19.0577 15.0726 20.6292 16.7673 21.2229C17.4477 21.4624 18.1294 21.5213 18.7813 21.4078C18.9115 21.385 19.1834 21.3064 19.3085 21.2618C19.7426 21.1055 20.1523 20.869 20.4905 20.5545C20.5998 20.4537 20.7816 20.2391 20.8718 20.1244C21.6922 19.0766 22.0125 17.5357 21.7726 15.9035C21.6838 15.301 21.5204 14.6465 21.2856 14.0723Z" fill="white"/>
<path d="M39.2682 13.4504C39.0478 13.4599 38.9034 13.4712 38.6624 13.5247C38.0049 13.6723 37.417 13.9994 36.8409 14.4823C36.3872 14.8641 36.0267 15.2605 35.6877 15.7916C35.5871 15.9486 35.4951 16.0897 35.4074 16.2579C34.7955 17.4344 34.5124 18.8687 34.6434 20.1712C34.807 21.8061 35.5785 23.1495 36.7161 23.8333C37.3839 24.2347 38.1636 24.3891 38.9449 24.2701C38.993 24.263 39.1604 24.2183 39.3181 24.1769C39.6231 24.0969 39.7249 24.0662 39.9636 23.9556C40.8121 23.5608 41.5926 22.8355 42.1485 21.9459C42.4353 21.4864 42.6418 21.0826 42.8171 20.5893C43.228 19.4325 43.326 18.2407 43.1173 17.0825C43.0811 16.8794 42.9422 16.3555 42.8779 16.1807C42.5042 15.161 41.9219 14.4116 41.1459 13.9437C40.8068 13.74 40.5194 13.6201 40.1436 13.5376C39.8431 13.4706 39.5746 13.4362 39.2682 13.4504Z" fill="white"/>
<path d="M13.7735 30.5122C13.9925 30.4258 14.1354 30.3698 14.3186 30.2547C15.6535 29.4189 16.2277 27.739 15.8266 25.8362C15.5796 24.6651 14.9714 23.5223 14.1055 22.6043C12.875 21.3008 11.2242 20.5852 9.78151 20.7373C9.40629 20.7779 9.02685 20.8752 8.7075 21.0206C8.0475 21.3212 7.53378 21.8108 7.1885 22.4517C6.9801 22.8361 6.82442 23.2704 6.74822 23.7511C6.69056 24.1216 6.6737 24.6076 6.71504 25.0257C6.74698 25.3384 6.7687 25.4256 6.87617 25.8545C6.98561 26.2937 7.019 26.3831 7.14891 26.7018C7.77042 28.2322 8.96802 29.5632 10.3661 30.2476C11.2883 30.6989 12.2312 30.8484 13.1191 30.706C13.2721 30.681 13.6249 30.5706 13.7735 30.5122Z" fill="white"/>
<path d="M28.4863 6.48125C28.3116 6.50042 27.8912 6.6091 27.7105 6.67425C26.8808 6.97389 26.1533 7.54438 25.5589 8.38442C25.4518 8.53465 25.2317 8.90479 25.1382 9.08439C24.355 10.5901 24.1068 12.4602 24.4448 14.2605C24.4898 14.4979 24.6395 15.1216 24.7098 15.3241C25.0898 16.41 25.6487 17.284 26.3668 17.9307C27.3038 18.7769 28.4229 19.1305 29.5568 18.9213C30.2935 18.7846 31.0416 18.3662 31.6473 17.7596C33.1676 16.2383 33.8277 13.6451 33.3538 11.1413C33.3144 10.9299 33.1703 10.337 33.1104 10.1644C32.7366 9.07297 32.1797 8.19398 31.4833 7.54874C30.59 6.72502 29.5761 6.36149 28.4863 6.48125Z" fill="white"/>
</svg>
