<svg width="52" height="52" viewBox="0 0 52 52" fill="none" xmlns="http://www.w3.org/2000/svg">
<path d="M26.1097 20.6427C25.8572 20.5658 25.7006 20.5372 25.4886 20.5009C24.6624 20.3579 23.8223 20.4478 22.9658 20.7573C22.6157 20.8837 22.254 21.0593 21.8654 21.2745C21.4775 21.4893 21.0774 21.7392 20.6411 22.0473C20.1834 22.3714 19.816 22.6492 18.8333 23.4172C17.5622 24.4105 16.9123 24.8772 16.1609 25.3448C15.6173 25.6831 15.1154 25.9542 14.5182 26.2229C13.2026 26.8143 12.0892 27.583 11.19 28.5239C10.4166 29.3344 9.85466 30.2053 9.49274 31.1644C9.42679 31.3376 9.29182 31.7816 9.25232 31.9571C8.99343 33.0809 9.03669 34.1601 9.41526 35.1929C9.72202 36.0284 10.2579 36.8359 10.8608 37.3644C11.7444 38.1399 12.8485 38.5421 14.4743 38.7076C14.9784 38.7599 15.6204 38.8007 16.6498 38.8262C18.1123 38.8647 18.9065 38.9313 19.6254 39.0643C20.6528 39.254 21.7112 39.6644 22.9287 40.3601C23.2981 40.57 23.6338 40.7684 24.4046 41.2567C25.3007 41.8244 25.6463 42.0423 26.0901 42.2784C26.393 42.4383 26.7574 42.5976 27.0008 42.6924C27.0659 42.718 27.1357 42.747 27.1516 42.7549C27.1678 42.7608 27.3617 42.8348 27.5872 42.9014C28.0263 43.0324 28.1247 43.0434 28.4436 43.0843C29.4043 43.2069 30.4328 43.0443 31.4187 42.6094C31.5668 42.5453 31.9644 42.3327 32.1022 42.2441C32.9386 41.7133 33.5961 40.9886 34.0367 40.0946C34.1917 39.7825 34.2789 39.5563 34.3885 39.1952C34.4701 38.927 34.5029 38.7547 34.5475 38.5162C34.8071 37.1296 34.6565 35.6185 34.0889 34.0624C33.8165 33.3156 33.4588 32.5897 32.9887 31.8256C32.5249 31.0708 32.2268 30.4659 31.9086 29.673C31.6112 28.9293 31.4077 28.2992 31.0297 26.9621C30.7135 25.8421 30.5974 25.422 30.4424 24.9745C30.0057 23.7262 29.4952 22.8561 28.8015 22.1717C28.1194 21.4985 27.2013 20.9744 26.1097 20.6427Z" fill="white"/>
<path d="M27.1358 12.9268C27.3777 11.3336 27.1542 9.76936 26.5099 8.46699C26.1465 7.73473 25.6324 7.1088 25.0367 6.6901C24.408 6.24795 23.6706 6.01727 22.9304 6.03597C22.4926 6.04735 22.093 6.13519 21.655 6.31413C21.5216 6.36999 21.1005 6.5946 20.9726 6.67891C20.0994 7.25648 19.3806 8.16126 18.8885 9.26431C18.7445 9.58913 18.7174 9.67568 18.5751 10.1436C18.4299 10.6235 18.3857 10.7552 18.3206 11.1347C17.9595 13.2504 18.4389 15.3677 19.589 16.7467C20.0501 17.3013 20.605 17.7016 21.2228 17.9387C21.3463 17.9859 21.6201 18.0579 21.7503 18.0837C22.2031 18.1723 22.6761 18.1795 23.1278 18.0831C23.2733 18.0525 23.5395 17.9617 23.6757 17.9094C24.9175 17.4309 25.9829 16.2725 26.6143 14.7484C26.8472 14.1857 27.0427 13.5401 27.1358 12.9268Z" fill="white"/>
<path d="M42.8907 21.6183C42.6966 21.5135 42.5668 21.4491 42.3326 21.3713C41.6924 21.1607 41.02 21.1399 40.2777 21.2589C39.6924 21.3538 39.1796 21.5091 38.6162 21.7911C38.4492 21.8743 38.2979 21.9482 38.1364 22.0476C37.0076 22.7436 36.0287 23.8295 35.4729 25.0147C34.7746 26.502 34.7477 28.051 35.3734 29.2215C35.7407 29.9087 36.3307 30.4412 37.0624 30.7399C37.1074 30.7585 37.274 30.8059 37.4306 30.8513C37.7334 30.9392 37.8366 30.965 38.0982 30.9925C39.029 31.089 40.0711 30.8668 41.0047 30.3883C41.4866 30.141 41.871 29.9004 42.2746 29.5669C43.2207 28.7847 43.9163 27.8119 44.3313 26.7108C44.4045 26.5178 44.554 25.9969 44.5885 25.8138C44.7908 24.7469 44.6754 23.8049 44.2493 23.0051C44.0629 22.6563 43.8776 22.4059 43.5973 22.1423C43.3738 21.9307 43.1609 21.7634 42.8907 21.6183Z" fill="white"/>
<path d="M12.2536 23.1846C12.4858 23.2227 12.6373 23.2479 12.8536 23.2431C14.4282 23.2105 15.7829 22.0631 16.4148 20.224C16.8036 19.0921 16.8678 17.7992 16.5954 16.5669C16.208 14.8167 15.1581 13.3556 13.8416 12.746C13.4987 12.5884 13.1231 12.4772 12.7744 12.4382C12.0537 12.3576 11.3615 12.5143 10.7364 12.8873C10.3603 13.1103 10.0038 13.4033 9.69182 13.7768C9.45223 14.0653 9.18842 14.4738 9.00945 14.8539C8.87642 15.1387 8.85035 15.2247 8.72257 15.648C8.59118 16.0811 8.57399 16.175 8.522 16.5152C8.27033 18.1477 8.6155 19.9046 9.46447 21.2094C10.0245 22.0699 10.7572 22.6819 11.5924 23.0151C11.7366 23.0722 12.096 23.1584 12.2536 23.1846Z" fill="white"/>
<path d="M37.2111 10.1049C37.0513 10.0317 36.6346 9.90928 36.4461 9.87253C35.5801 9.70404 34.6631 9.82057 33.7219 10.2367C33.5528 10.3107 33.1741 10.5155 33.0017 10.6217C31.5569 11.5123 30.3845 12.9902 29.751 14.709C29.6678 14.9359 29.4764 15.548 29.4328 15.7579C29.2019 16.885 29.2333 17.9219 29.5179 18.8455C29.8881 20.0525 30.6673 20.9301 31.748 21.3323C32.4504 21.5929 33.3073 21.6175 34.1384 21.4076C36.2238 20.8817 38.1208 18.9944 38.9985 16.6021C39.0731 16.4004 39.2536 15.8175 39.2908 15.6386C39.5298 14.51 39.5027 13.4698 39.236 12.5587C38.8918 11.3934 38.2079 10.5611 37.2111 10.1049Z" fill="white"/>
</svg>
