<svg width="36" height="36" viewBox="0 0 36 36" fill="none" xmlns="http://www.w3.org/2000/svg">
<path d="M16.2545 17.9455L17.3152 16.8848C17.8496 17.4193 18.1499 18.1442 18.1499 18.9C18.1499 19.6559 17.8496 20.3808 17.3152 20.9153C16.7807 21.4498 16.0558 21.75 15.2999 21.75C14.544 21.75 13.8191 21.4498 13.2846 20.9153M16.2545 17.9455L13.2846 20.9153M16.2545 17.9455L17.3151 16.8848C16.7807 16.3503 16.0558 16.05 15.2999 16.05C14.544 16.05 13.8191 16.3503 13.2846 16.8848C12.7502 17.4193 12.4499 18.1442 12.4499 18.9C12.4499 19.6559 12.7502 20.3808 13.2846 20.9153M16.2545 17.9455L13.2846 20.9153M27.6425 14.2284L27.4095 13.84C27.7297 13.8092 28.0382 13.7842 28.256 13.7677L31.2668 17.036L27.8079 20.5603C27.761 20.5582 27.7122 20.5562 27.6634 20.5542C27.6229 20.5525 27.5824 20.5508 27.5431 20.5491C27.371 20.5417 27.173 20.5328 26.9686 20.522L27.0254 20.4529L29.0433 18H25.867H19.7999H18.2999V19.5V29.0027L6.8999 27.2585V8.74165L18.2999 6.99907V15V16.5H19.7999H26.3562H29.0052L27.6425 14.2284Z" fill="#0D9C57" stroke="#115F22" stroke-width="3"/>
<path d="M23.1001 28.8H22.6001V21.8H23.6001V28.7033C23.4944 28.7531 23.3194 28.8 23.1001 28.8Z" fill="#0D9C57" stroke="#115F22" stroke-width="2"/>
<path d="M22.6001 12.4002V7.2002H23.1001C23.3194 7.2002 23.4944 7.24718 23.6001 7.29689V12.4002H22.6001Z" fill="#0D9C57" stroke="#115F22" stroke-width="2"/>
</svg>
